<svg width="23" height="16" viewBox="0 0 23 16" fill="none" xmlns="http://www.w3.org/2000/svg">
<g opacity="0.6">
<path d="M19.2283 4.23038C21.112 6.16003 22.2731 8.79838 22.2731 11.7097H14.4318M8.69346 11.7097H0.853699C0.853699 5.79494 5.64869 0.999953 11.5635 0.999953C13.9072 0.999953 16.0746 1.75318 17.8371 3.02933" stroke="#0B101A" stroke-width="0.5" stroke-miterlimit="10" stroke-linecap="round" stroke-linejoin="round"/>
<path d="M11.5635 14.3159C12.9992 14.3159 14.1696 13.1455 14.1696 11.7098C14.1696 10.2741 12.9992 9.10373 11.5635 9.10373C10.1277 9.10373 8.95734 10.2741 8.95734 11.7098C8.95734 13.1455 10.1277 14.3159 11.5635 14.3159Z" stroke="#0B101A" stroke-width="0.5" stroke-miterlimit="10" stroke-linecap="round" stroke-linejoin="round"/>
<path d="M14.3459 4.06491L14.6497 3.22733M8.47566 3.22733L8.7809 4.06491M16.791 5.47921L17.3631 4.79654M5.76221 4.79654L6.33589 5.47921M18.6071 7.64192L19.3802 7.19718M3.74663 7.19718L4.51825 7.64192M19.1593 10.3708L20.8665 10.0686M2.25879 10.0686L3.96756 10.3708M11.5634 2.26415V3.99743" stroke="#0B101A" stroke-width="0.5" stroke-miterlimit="10" stroke-linecap="round" stroke-linejoin="round"/>
<path d="M13.6096 9.99939L14.8198 6.06801L12.0082 9.09438" stroke="#0B101A" stroke-width="0.5" stroke-miterlimit="10" stroke-linecap="round" stroke-linejoin="round"/>
<path d="M5.90949 13.2068H6.91108C7.40349 13.2068 7.80689 13.6103 7.80689 14.1042C7.80689 14.5965 7.40349 15 6.91108 15H3.06866C2.5763 15 2.17285 14.5965 2.17285 14.1042C2.17285 13.6103 2.5763 13.2068 3.06866 13.2068H4.07036" stroke="#0B101A" stroke-width="0.5" stroke-miterlimit="10" stroke-linecap="round" stroke-linejoin="round"/>
<path d="M19.0549 15H20.0566C20.5506 15 20.954 14.5965 20.954 14.1042C20.954 13.6103 20.5506 13.2068 20.0566 13.2068H16.2157C15.7218 13.2068 15.3184 13.6103 15.3184 14.1042C15.3184 14.5965 15.7218 15 16.2157 15H17.2173" stroke="#0B101A" stroke-width="0.5" stroke-miterlimit="10" stroke-linecap="round" stroke-linejoin="round"/>
</g>
</svg>
