<svg width="23" height="16" fill="none" xmlns="http://www.w3.org/2000/svg"><g opacity=".6" stroke="#D9D9D9" stroke-width=".5" stroke-miterlimit="10" stroke-linecap="round" stroke-linejoin="round"><path d="M18.728 4.23a10.672 10.672 0 0 1 3.045 7.48h-7.841m-5.739 0H.353C.354 5.795 5.15 1 11.064 1c2.344 0 4.512.753 6.274 2.03"/><path d="M11.063 14.316a2.61 2.61 0 0 0 2.607-2.606 2.61 2.61 0 0 0-2.607-2.606 2.61 2.61 0 0 0-2.606 2.606 2.61 2.61 0 0 0 2.606 2.606ZM13.846 4.065l.304-.838m-6.174 0 .305.838m8.01 1.414.572-.682m-11.6 0 .573.682m12.271 2.163.773-.445m-15.633 0 .771.445m14.641 2.729 1.707-.302m-18.607 0 1.709.302m7.595-8.107v1.733"/><path d="m13.11 10 1.21-3.932-2.812 3.027M5.41 13.207H6.41a.9.9 0 0 1 .896.897.899.899 0 0 1-.896.896H2.57a.899.899 0 0 1-.896-.896.9.9 0 0 1 .896-.897H3.57M18.555 15h1.002a.9.9 0 0 0 .897-.896.9.9 0 0 0-.897-.897h-3.841a.9.9 0 0 0-.898.897.9.9 0 0 0 .898.896h1.001"/></g></svg>