<svg width="23" height="18" fill="none" xmlns="http://www.w3.org/2000/svg"><g opacity=".6" stroke="#D9D9D9" stroke-width=".5" stroke-miterlimit="10" stroke-linecap="round" stroke-linejoin="round"><path d="M12.837 17h6.089c.327 0 .591-.282.591-.629V8.068a.645.645 0 0 0-.212-.483l-3.635-3.22a.57.57 0 0 0-.379-.146H6.149a.567.567 0 0 0-.332.108L3.596 5.928a.618.618 0 0 0-.191.226.66.66 0 0 0-.069.295v6.47c0 .238.127.455.328.562l6.51 3.453a.562.562 0 0 0 .264.066h.989"/><path d="M20.947 15.242h-1.43V9.627h1.43v5.615ZM22.354 11.994v3.986c0 .412-.315.746-.704.746-.388 0-.703-.334-.703-.746V8.89c0-.413.315-.747.703-.747.389 0 .704.334.704.746v1.612M1.204 14.108c-.389 0-.704-.334-.704-.746v-7.09c0-.413.315-.747.704-.747.388 0 .703.334.703.746v7.09c0 .413-.315.747-.703.747ZM10.01 1h4.23c.388 0 .703.334.703.746 0 .413-.315.747-.704.747H7.555c-.388 0-.703-.334-.703-.747 0-.412.315-.746.703-.746h1.048"/><path d="M11.557 4.219h-1.32V2.493h1.32v1.726Zm-9.65 4.789h1.43v1.4h-1.43v-1.4ZM12.827 7.107l-3.17 2.406a.168.168 0 0 0-.02.242l.796.873c.019.02.032.046.039.074a.17.17 0 0 1-.003.084l-.709 2.466c-.042.145.111.265.23.18l3.35-2.399a.159.159 0 0 0 .065-.114.172.172 0 0 0-.04-.128l-.986-1.126a.17.17 0 0 1-.032-.161l.711-2.215c.048-.148-.111-.273-.23-.182Z"/></g></svg>