<svg width="19" height="16" fill="none" xmlns="http://www.w3.org/2000/svg"><g opacity=".6" stroke="#0B101A" stroke-width=".5" stroke-miterlimit="10" stroke-linecap="round" stroke-linejoin="round"><path d="M4.919 1.199c4.231.718 8.462.494 12.694-.673a.71.71 0 0 1 .9.683v11.287a.71.71 0 0 1-.9.683 30.044 30.044 0 0 0-4.193-.848m-7.327 0a30.043 30.043 0 0 0-4.193.848.71.71 0 0 1-.9-.683V1.21a.71.71 0 0 1 .9-.683 31.07 31.07 0 0 0 1.802.44"/><path d="M9.756 8.096a3.702 3.702 0 1 1 0 7.404 3.702 3.702 0 0 1 0-7.404Zm0 .952a2.754 2.754 0 0 0-2.708 2.274H8.73c.204-.226.587-.268 1.025-.268.438 0 .821.042 1.025.268h1.684a2.754 2.754 0 0 0-2.709-2.274Zm2.709 3.226h-1.628c-.12.27-.335.485-.605.605v1.628a2.757 2.757 0 0 0 2.233-2.233ZM9.28 14.507v-1.628a1.188 1.188 0 0 1-.605-.605H7.048a2.757 2.757 0 0 0 2.232 2.233Z"/><path d="m14.922 9.687-3.336-6.145a.546.546 0 0 0-.48-.285h-2.7c-.2 0-.384.11-.48.285l-5.101 9.397m13.863 0-1.174-2.162m-5.758-7.52v.821m0 1.343v1.463"/></g></svg>