<svg width="16" height="16" fill="none" xmlns="http://www.w3.org/2000/svg"><g opacity=".6" stroke="#0B101A" stroke-width=".5" stroke-miterlimit="10" stroke-linecap="round" stroke-linejoin="round"><path d="M2.402 4.293H1.16a.3.3 0 0 1-.3-.3V.534a.3.3 0 0 1 .3-.3h1.242a.3.3 0 0 1 .3.3v3.457a.3.3 0 0 1-.3.3Z"/><path d="M6.458 1.882H3.491v.764h2.992M.859.774l.386.172M.86 1.71l.386.172m-.386.764.386.172M.86 3.58l.386.172M2.702.774l-.385.172m.385.764-.385.172m.385.764-.385.172m.385.763-.385.172m.385-2.274h.789v1.569h-.789V1.479Zm10.896 2.814h1.242a.3.3 0 0 0 .3-.3V.534a.3.3 0 0 0-.3-.3h-1.242a.3.3 0 0 0-.3.3v3.457a.3.3 0 0 0 .3.3ZM13.297 3.048h-.788V1.479h.788v1.569Z"/><path d="M9.532 1.882h2.977v.764H9.532M15.141.774l-.386.172m.386.764-.386.172m.386.764-.386.172m.386.763-.386.172M13.297.774l.386.172m-.386.764.386.172m-.386.764.386.172m-.386.763.386.172M2.402 15.766H1.16a.3.3 0 0 1-.3-.3v-3.458a.3.3 0 0 1 .3-.3h1.242a.3.3 0 0 1 .3.3v3.457a.3.3 0 0 1-.3.3Z"/><path d="m.86 12.247.385.172m-.386.763.386.172m-.386.764.386.172m-.386.764.386.172m1.457-2.98-.385.173m.385.763-.385.172m.385.764-.385.172m.385.764-.385.172m.385-2.274h.789v1.569h-.789v-1.569Zm10.896 2.814h1.242a.3.3 0 0 0 .3-.3v-3.458a.3.3 0 0 0-.3-.3h-1.242a.3.3 0 0 0-.3.3v3.457a.3.3 0 0 0 .3.3ZM13.297 14.52h-.788v-1.568h.788v1.569Z"/><path d="m15.14 12.247-.385.172m.386.763-.386.172m.386.764-.386.172m.386.764-.386.172m-1.458-2.98.386.173m-.386.763.386.172m-.386.764.386.172m-.386.764.386.172m-5.193-4.84v2.968h-.98v-2.968m0-4.073V3.377h.98v2.936m-.665 2.052h.35m-.35.745h.35m-.387-7.073h.424m2.86 12.081h1.437v-.764H3.491v.764h6.675m-3.41-5.11v1.07a.265.265 0 0 0 .265.265H8.98a.264.264 0 0 0 .264-.264V7.71a.265.265 0 0 0-.086-.195l-.17-.155a.265.265 0 0 1-.085-.195v-.514a.265.265 0 0 0-.265-.264H7.363a.265.265 0 0 0-.265.264v.514a.264.264 0 0 1-.086.195l-.17.155a.265.265 0 0 0-.085.195v.39m.79-7.403h-.37a.354.354 0 0 0-.333.231l-.306.828a.354.354 0 0 0-.022.123v1.142c0 .196.159.354.355.354H9.13a.354.354 0 0 0 .354-.354V1.88a.354.354 0 0 0-.022-.123L9.156.93a.354.354 0 0 0-.332-.231h-.37"/></g></svg>