<svg width="70" height="76" fill="none" xmlns="http://www.w3.org/2000/svg"><g opacity=".8" stroke="#E5EEF7" stroke-width="2" stroke-miterlimit="10" stroke-linecap="round" stroke-linejoin="round"><path d="M60.255 5H9.745c-3.347 0-6.06 2.86-6.06 6.387v53.226C3.684 68.14 6.397 71 9.744 71h50.51c3.347 0 6.06-2.86 6.06-6.387V11.387C66.316 7.86 63.603 5 60.256 5Z"/><path d="M7.725 18.839v45.774c0 1.176.905 2.129 2.02 2.129h50.51c1.115 0 2.02-.953 2.02-2.13V11.388c0-1.176-.904-2.129-2.02-2.129H9.745c-1.115 0-2.02.953-2.02 2.13v3.193"/><path d="M40.051 38.196a6.454 6.454 0 0 1-3.507 1.052c-1.486 0-4.45.016-6.43.028v-13.82h6.43c3.637 0 6.71 3.159 6.71 6.896 0 .905-.18 1.777-.504 2.577m-6.206-13.73h-8.45c-1.117 0-2.021.953-2.021 2.129v30.914c0 .283.106.553.296.753.19.2.446.312.714.312h2.02a.985.985 0 0 0 .715-.312c.189-.2.295-.47.295-.753V43.534c1.975-.012 4.944-.028 6.43-.028 5.929 0 10.752-5.004 10.752-11.154S42.472 21.2 36.544 21.2Z"/></g></svg>