<svg width="83" height="76" fill="none" xmlns="http://www.w3.org/2000/svg"><g opacity=".8" stroke="#E5EEF7" stroke-width="2" stroke-miterlimit="10" stroke-linecap="round" stroke-linejoin="round"><path d="M69.649 21.771c7.037 8.226 11.375 19.474 11.375 31.884H51.73m-21.44 0H1C1 28.441 18.914 8 41.012 8c8.757 0 16.854 3.211 23.439 8.651"/><path d="M41.012 64.764c5.364 0 9.737-4.99 9.737-11.11 0-6.12-4.373-11.109-9.737-11.109s-9.737 4.99-9.737 11.11c0 6.12 4.373 11.11 9.737 11.11ZM51.407 21.066l1.135-3.571m-23.067 0 1.14 3.57m29.927 6.03 2.137-2.91m-43.341 0 2.143 2.91m45.846 9.22 2.889-1.897m-58.409 0 2.883 1.896m54.7 11.633 6.378-1.288m-69.52 0 6.385 1.288M41.01 13.39v7.389"/><path d="m48.657 46.365 4.521-16.76-10.504 12.902M19.889 60.038h3.742c1.84 0 3.347 1.72 3.347 3.825 0 2.099-1.508 3.819-3.347 3.819H9.275c-1.84 0-3.347-1.72-3.347-3.819 0-2.105 1.508-3.825 3.347-3.825h3.743M69 67.682h3.743c1.845 0 3.353-1.72 3.353-3.819 0-2.105-1.508-3.825-3.353-3.825h-14.35c-1.845 0-3.352 1.72-3.352 3.825 0 2.099 1.507 3.819 3.352 3.819h3.742"/></g></svg>