<svg width="112" height="112" fill="none" xmlns="http://www.w3.org/2000/svg"><g opacity=".8" stroke="#E0E0E0" stroke-width="2" stroke-miterlimit="10" stroke-linecap="round" stroke-linejoin="round"><path d="M99.874 1h-88.28C5.743 1 1 5.743 1 11.594v88.28c0 5.85 4.743 10.593 10.594 10.593h88.28c5.85 0 10.593-4.743 10.593-10.593v-88.28C110.467 5.743 105.724 1 99.874 1Z"/><path d="M8.063 23.953v75.92a3.531 3.531 0 0 0 3.53 3.532h88.28a3.531 3.531 0 0 0 3.532-3.531v-88.28a3.531 3.531 0 0 0-3.531-3.531h-88.28a3.531 3.531 0 0 0-3.531 3.53v5.297"/><path d="M64.562 56.058a11.719 11.719 0 0 1-6.13 1.745c-2.596 0-7.776.027-11.239.047V34.93h11.239c6.358 0 11.73 5.238 11.73 11.437 0 1.5-.315 2.945-.883 4.273M58.432 27.867h-14.77a3.531 3.531 0 0 0-3.531 3.531v51.275a1.766 1.766 0 0 0 1.765 1.766h3.532a1.766 1.766 0 0 0 1.765-1.766v-17.76c3.452-.02 8.641-.047 11.239-.047 10.361 0 18.792-8.299 18.792-18.5 0-10.2-8.43-18.499-18.792-18.499Z"/></g></svg>