<svg width="126" height="113" fill="none" xmlns="http://www.w3.org/2000/svg"><g opacity=".8" stroke="#E0E0E0" stroke-width="2"><path d="M62.95 59.434h59.076a2.486 2.486 0 0 1 2.485 2.487v7.222a2.486 2.486 0 0 1-2.485 2.487H62.991" stroke-miterlimit="10" stroke-linecap="round" stroke-linejoin="round"/><path d="M46.484 59.035c.593-4.005 4.042-7.079 8.209-7.079 4.583 0 8.298 3.719 8.298 8.306v39.99M46.395 29.208v71.122M1 83.707V3.487A2.486 2.486 0 0 1 3.485 1H43.91a2.486 2.486 0 0 1 2.485 2.487v17.591M1 100.252v-8.414M96.41 100.252h25.274a2.485 2.485 0 0 1 2.485 2.487v5.86a2.485 2.485 0 0 1-2.485 2.487H3.485A2.486 2.486 0 0 1 1 108.599v-8.347h87.287M1 9.928h45.394M46.394 54.537H1M67.994 71.63l12.165-12.195M92.349 59.435 80.184 71.63M94.3 71.63l12.163-12.195M118.653 59.435 106.491 71.63M46.395 90.25H62.99" stroke-miterlimit="10" stroke-linecap="round" stroke-linejoin="round"/><path d="M54.082 66.145a.863.863 0 0 0 1.475-.612.866.866 0 0 0-.864-.866.863.863 0 0 0-.864.865c0 .23.091.45.253.613Z" fill="#000"/><path d="M34.523 88.613H12.872a2.486 2.486 0 0 1-2.485-2.487V68.894a2.486 2.486 0 0 1 2.485-2.487h21.65a2.486 2.486 0 0 1 2.486 2.487v17.232a2.486 2.486 0 0 1-2.485 2.487ZM36.21 67.072 11.185 87.948" stroke-miterlimit="10" stroke-linecap="round" stroke-linejoin="round"/></g></svg>