<svg width="70" height="76" fill="none" xmlns="http://www.w3.org/2000/svg"><g opacity=".8" stroke="#E5EEF7" stroke-width="2" stroke-miterlimit="10" stroke-linecap="round" stroke-linejoin="round"><path d="M13.38 72.828H6.718c-1.123 0-2.034-1.017-2.034-2.273v-8.513h10.732v8.513c0 1.256-.91 2.273-2.034 2.273ZM63.283 72.828H56.62c-1.124 0-2.034-1.017-2.034-2.273v-8.513h10.731v8.513c0 1.256-.91 2.273-2.034 2.273ZM5.429 35.927h2.264c1.894 0 3.43 1.525 3.43 3.406v3.407H5.428C3.535 42.74 2 41.213 2 39.332c0-1.88 1.535-3.406 3.429-3.406ZM64.572 35.927h-2.265c-1.894 0-3.429 1.525-3.429 3.406v3.407h5.694c1.893 0 3.428-1.526 3.428-3.407 0-1.88-1.535-3.406-3.428-3.406ZM54.047 56.932h11.27v-8.515h-11.27c-1.777 0-3.218 1.612-3.218 3.6v1.315c0 1.989 1.44 3.6 3.218 3.6ZM15.954 56.932H4.684v-8.515h11.27c1.776 0 3.217 1.612 3.217 3.6v1.315c0 1.989-1.44 3.6-3.217 3.6ZM42.957 62.042c1.088 0 1.97-.93 1.97-2.076v-3.228c0-1.147-.882-2.076-1.97-2.076H27.043c-1.088 0-1.97.93-1.97 2.076v3.228c0 1.146.882 2.076 1.97 2.076"/><path d="M48.853 42.74H60.48c2.66 0 4.837 2.277 4.837 5.061v14.241H33.122M28.727 62.042H4.683V47.801c0-2.784 2.167-5.061 4.816-5.061H44.39M26.146 27.486c9.14-1.334 18.451-.59 27.402 2.233 1.124.354 2.02 1.34 2.383 2.621l2.947 10.4M11.122 42.74l2.955-10.21c.364-1.258 1.262-2.225 2.39-2.573a63.81 63.81 0 0 1 5.387-1.41M53.302 4.44a1.555 1.555 0 0 0-.398-.797 1.416 1.416 0 0 0-.753-.42c-3.898-.766-8.075.443-11.091 3.634-3.016 3.19-4.159 7.61-3.435 11.734.054.302.192.58.398.797.205.217.467.364.753.42 3.898.767 8.075-.442 11.091-3.633s4.159-7.61 3.435-11.735ZM16.698 4.44c.054-.302.192-.58.398-.797.205-.217.468-.364.753-.42 3.898-.766 8.075.443 11.091 3.634 3.016 3.19 4.159 7.61 3.435 11.734-.054.302-.192.58-.398.797a1.416 1.416 0 0 1-.753.42c-3.898.767-8.075-.442-11.091-3.633s-4.159-7.61-3.435-11.735Z"/><path d="M34.732 26.844c0-2.685-.928-5.266-2.589-7.203l-5.997-6.99M34.732 26.844c0-2.685.986-5.266 2.75-7.203l6.372-6.99"/></g></svg>