<svg width="70" height="76" fill="none" xmlns="http://www.w3.org/2000/svg"><g opacity=".8" stroke="#E5EEF7" stroke-width="2" stroke-miterlimit="10" stroke-linecap="round" stroke-linejoin="round"><path d="M2.763 42.785v19.487C2.763 68.196 7.118 73 12.49 73c5.372 0 9.725-4.804 9.725-10.728V32.345H2.764v6.147M22.214 32.344V9.493S23.29 5.56 27.844 3c4.551 2.56 5.627 6.493 5.627 6.493S34.545 5.56 39.098 3c4.553 2.56 5.628 6.493 5.628 6.493S45.8 5.56 50.353 3c4.553 2.56 5.629 6.493 5.629 6.493S57.056 5.56 61.609 3c2.277 1.28 3.685 2.904 4.521 4.206.838 1.303 1.107 2.287 1.107 2.287v5.187"/><path d="M67.237 18.973v43.299C67.237 68.196 62.882 73 57.51 73H12.49M28.334 38h3.212M35.757 38h25.542M28.334 44.178h3.212M35.757 44.178h25.542M28.334 57.02h3.212M35.757 57.02h25.542M28.334 63.077h3.212M35.757 63.077h25.542"/></g></svg>