<svg width="71" height="76" fill="none" xmlns="http://www.w3.org/2000/svg"><g opacity=".8"><path d="M35.104 40.032h31.568c.733 0 1.328.668 1.328 1.492v4.33c0 .823-.595 1.49-1.328 1.49H35.126" stroke="#E5EEF7" stroke-width="2" stroke-miterlimit="10" stroke-linecap="round" stroke-linejoin="round"/><path d="M26.305 39.793c.317-2.401 2.16-4.243 4.386-4.243 2.45 0 4.435 2.229 4.435 4.979v23.975M26.257 21.912V64.55M2 54.585V6.491c0-.823.595-1.49 1.328-1.49h21.601c.734-.001 1.328.667 1.328 1.49v10.547M2 64.504V59.46M52.984 64.504H66.49c.733 0 1.327.668 1.327 1.492v3.513c0 .823-.594 1.491-1.327 1.491H3.328C2.595 71 2 70.332 2 69.509v-5.005h46.643M2 10.353h24.257M26.257 37.096H2M37.8 47.344l6.5-7.31M50.814 40.033l-6.5 7.311M51.856 47.344l6.5-7.31M64.87 40.033l-6.5 7.311M26.257 58.508h8.869" stroke="#E5EEF7" stroke-width="2" stroke-miterlimit="10" stroke-linecap="round" stroke-linejoin="round"/><mask id="a" fill="#fff"><path d="M30.692 44.808a.944.944 0 0 1-.704-.328 1.192 1.192 0 0 1-.292-.79c0-.297.105-.582.291-.791a.944.944 0 0 1 .705-.328c.264 0 .517.118.704.328.187.21.292.494.292.79 0 .297-.105.581-.292.791a.944.944 0 0 1-.704.328Z"/></mask><path d="M30.692 44.808a.944.944 0 0 1-.704-.328 1.192 1.192 0 0 1-.292-.79c0-.297.105-.582.291-.791a.944.944 0 0 1 .705-.328c.264 0 .517.118.704.328.187.21.292.494.292.79 0 .297-.105.581-.292.791a.944.944 0 0 1-.704.328Z" fill="#E5EEF7"/><path d="M30.692 44.808v2-2Zm-.996-1.119h-2 2Zm1.992 0h2-2Zm-.996 3.119a2.944 2.944 0 0 1-2.198-.998l2.987-2.66a1.058 1.058 0 0 0-.79-.342v4Zm-2.198-.998a3.191 3.191 0 0 1-.798-2.12h4a.81.81 0 0 0-.215-.54l-2.987 2.66Zm-.798-2.12c0-.758.265-1.524.798-2.122l2.987 2.66a.81.81 0 0 0 .215-.539h-4Zm.798-2.122a2.944 2.944 0 0 1 2.198-.997v4c.346 0 .623-.157.79-.342l-2.988-2.66Zm2.198-.997c.874 0 1.658.392 2.198.997l-2.988 2.66c.166.186.444.343.79.343v-4Zm2.198.997c.532.598.798 1.364.798 2.121h-4c0 .164.056.361.215.54l2.987-2.66Zm.798 2.121c0 .757-.266 1.523-.798 2.121l-2.988-2.66a.81.81 0 0 0-.214.54h4Zm-.798 2.121a2.944 2.944 0 0 1-2.198.998v-4c-.346 0-.624.156-.79.342l2.988 2.66Z" fill="#E5EEF7" mask="url(#a)"/><path d="M19.913 57.527H8.343c-.733 0-1.327-.668-1.327-1.492v-10.33c0-.824.594-1.491 1.328-1.491h11.57c.733 0 1.327.667 1.327 1.49v10.331c0 .824-.594 1.492-1.328 1.492ZM20.815 44.612 7.442 57.127" stroke="#E5EEF7" stroke-width="2" stroke-miterlimit="10" stroke-linecap="round" stroke-linejoin="round"/></g></svg>