<svg width="138" height="113" fill="none" xmlns="http://www.w3.org/2000/svg"><path d="M114.093 13.068C112.156 6.108 105.777 1 98.201 1c-9.113 0-16.5 7.387-16.5 16.5 0 9.112 7.387 16.5 16.5 16.5 7.57 0 13.945-5.1 15.887-12.051" stroke="#E0E0E0" stroke-width="2" stroke-miterlimit="10" stroke-linecap="round" stroke-linejoin="round" opacity=".8"/><path d="m23.844 39.695 3.176-8.066a17.656 17.656 0 0 1 16.43-11.187h37.686M109.631 30.493c.177.372.342.75.495 1.136l3.176 8.066" stroke="#E0E0E0" stroke-width="2" stroke-miterlimit="10" stroke-linecap="round" stroke-linejoin="round"/><path d="M107.499 32.1a17.43 17.43 0 0 1 5.803 7.595l4.304 10.931M19.54 50.626l4.304-10.931A17.437 17.437 0 0 1 40.07 28.644h44.892M27.766 104.424v2.181a4.568 4.568 0 0 1-4.569 4.568h-9.696a4.568 4.568 0 0 1-4.569-4.568v-4.93M128.214 101.675v4.93a4.568 4.568 0 0 1-4.568 4.568h-9.697a4.568 4.568 0 0 1-4.568-4.568v-2.181M41.748 75.987H7.495M129.651 75.987H95.397M83.737 89.636H99.63c.796 0 1.559-.316 2.121-.878l2.289-2.29a8.817 8.817 0 0 1 6.235-2.582h19.376M7.495 83.886h19.376c2.339 0 4.582.929 6.235 2.583l2.29 2.289a3 3 0 0 0 2.12.878h15.893" stroke="#E0E0E0" stroke-width="2" stroke-miterlimit="10" stroke-linecap="round" stroke-linejoin="round"/><path d="M48.651 103.877h73.093a8.994 8.994 0 0 0 8.994-8.995V62.645a7.14 7.14 0 0 0-3.827-6.327l-9.826-5.151H93.393M84.512 51.167H20.06l-9.826 5.15a7.144 7.144 0 0 0-3.827 6.328v32.237a8.995 8.995 0 0 0 8.995 8.995H39.77M110.604 90.733h6.154M20.388 90.733h6.154" stroke="#E0E0E0" stroke-width="2" stroke-miterlimit="10" stroke-linecap="round" stroke-linejoin="round"/><path d="M12.852 55.904v9.351A1.525 1.525 0 0 0 14.2 66.77l16.908 1.992a9.92 9.92 0 0 0 6.62-1.57L40.75 65.2c1.092-.72.83-2.392-.431-2.742l-15.499-4.308a1.369 1.369 0 0 1-.122-.04l-9.789-3.634a1.525 1.525 0 0 0-2.056 1.43ZM124.294 55.904v9.351a1.524 1.524 0 0 1-1.347 1.514l-16.908 1.992a9.92 9.92 0 0 1-6.62-1.57L96.396 65.2c-1.092-.72-.83-2.392.431-2.742l15.499-4.308a1.42 1.42 0 0 0 .123-.04l9.788-3.634a1.525 1.525 0 0 1 2.056 1.43ZM40.861 62.456h55.423M122.415 47.427h12.084a1.645 1.645 0 0 0 1.575-2.124c-.694-2.285-2.368-5.594-6.242-5.594h-5.171a2.248 2.248 0 0 0-2.246 2.247v5.471ZM121.871 47.427h-4.565M14.732 47.427H2.647a1.645 1.645 0 0 1-1.575-2.124c.694-2.285 2.368-5.594 6.242-5.594h5.171a2.244 2.244 0 0 1 2.247 2.247v5.471ZM15.547 47.427h4.565M42.565 75.987h52.017v2.26c0 6.29-5.1 11.389-11.389 11.389h-29.24c-6.29 0-11.389-5.099-11.389-11.388v-2.261Z" stroke="#E0E0E0" stroke-width="2" stroke-miterlimit="10" stroke-linecap="round" stroke-linejoin="round"/></svg>