<svg width="72" height="76" fill="none" xmlns="http://www.w3.org/2000/svg"><g opacity=".8" stroke="#E5EEF7" stroke-width="2" stroke-miterlimit="10" stroke-linecap="round" stroke-linejoin="round"><path d="M40.518 69H60.02c1.047 0 1.895-1.09 1.895-2.436V34.389c0-.723-.25-1.408-.681-1.871L49.59 20.038c-.34-.366-.77-.566-1.214-.566H19.095c-.38 0-.75.147-1.064.42l-7.115 6.205a2.342 2.342 0 0 0-.611.875c-.145.352-.22.744-.22 1.141v25.07c0 .924.405 1.768 1.048 2.18l20.852 13.38c.263.17.553.257.846.257H36M66.493 62.189h-4.577v-21.76h4.577v21.76ZM71 49.601v15.445c0 1.597-1.01 2.892-2.254 2.892-1.245 0-2.253-1.294-2.253-2.892V37.571c0-1.597 1.008-2.892 2.253-2.892S71 35.974 71 37.571v6.246M3.254 57.793C2.009 57.793 1 56.498 1 54.901V27.426c0-1.598 1.009-2.892 2.254-2.892 1.244 0 2.253 1.294 2.253 2.892V54.9c0 1.597-1.009 2.892-2.253 2.892ZM31.46 7h13.548c1.244 0 2.253 1.295 2.253 2.892 0 1.598-1.009 2.892-2.253 2.892H23.599c-1.244 0-2.253-1.294-2.253-2.892C21.346 8.295 22.355 7 23.599 7h3.354"/><path d="M36.416 19.472h-4.225v-6.688h4.225v6.688ZM5.507 38.03h4.578v5.423H5.506V38.03ZM40.485 30.664l-10.154 9.323a.596.596 0 0 0-.14.197.792.792 0 0 0-.036.517c.024.084.06.161.11.225l2.552 3.381c.06.08.103.18.123.287a.793.793 0 0 1-.008.328l-2.271 9.554c-.134.562.356 1.026.735.698l10.73-9.294a.584.584 0 0 0 .143-.193.791.791 0 0 0 .046-.517.678.678 0 0 0-.106-.23l-3.16-4.365a.697.697 0 0 1-.119-.294.79.79 0 0 1 .016-.33l2.28-8.58c.153-.573-.357-1.06-.741-.707Z"/></g></svg>