<svg width="153" height="113" fill="none" xmlns="http://www.w3.org/2000/svg"><g opacity=".8" stroke="#E0E0E0" stroke-width="2" stroke-miterlimit="10" stroke-linecap="round" stroke-linejoin="round"><path d="M85.885 111.086h41.892c2.248 0 4.071-1.936 4.071-4.326V49.632c0-1.284-.537-2.5-1.464-3.323l-25.01-22.16a3.927 3.927 0 0 0-2.607-1.003H39.869c-.815 0-1.611.26-2.285.746L22.299 34.908c-.55.397-1 .931-1.312 1.555a4.54 4.54 0 0 0-.473 2.026v44.514c0 1.64.872 3.138 2.252 3.87l44.79 23.758a3.881 3.881 0 0 0 1.819.455h6.806M141.68 98.992h-9.832V60.355h9.832v38.637Z"/><path d="M151.361 76.642v27.424c0 2.836-2.167 5.135-4.84 5.135-2.674 0-4.841-2.299-4.841-5.135V55.281c0-2.836 2.167-5.135 4.841-5.135 2.673 0 4.84 2.3 4.84 5.136v11.09M5.84 91.188c-2.673 0-4.84-2.3-4.84-5.136V37.268c0-2.836 2.167-5.135 4.84-5.135 2.674 0 4.841 2.299 4.841 5.135v48.784c0 2.836-2.167 5.135-4.84 5.135ZM66.43 1h29.1c2.673 0 4.84 2.3 4.84 5.135 0 2.837-2.167 5.136-4.84 5.136H49.544c-2.674 0-4.84-2.3-4.84-5.136C44.703 3.3 46.87 1 49.543 1h7.205"/><path d="M77.075 23.146h-9.076V11.27h9.076v11.875ZM10.68 56.096h9.833v9.628H10.68v-9.629ZM85.815 43.016 64.003 59.571a1.085 1.085 0 0 0-.298.35 1.152 1.152 0 0 0-.078.917c.05.15.13.286.234.4l5.483 6.004c.13.142.22.318.264.51.044.192.038.393-.016.582l-4.88 16.964c-.286.996.766 1.821 1.58 1.239l23.046-16.503c.125-.09.23-.207.308-.343a1.153 1.153 0 0 0 .1-.918 1.12 1.12 0 0 0-.227-.408l-6.788-7.75a1.13 1.13 0 0 1-.256-.522 1.17 1.17 0 0 1 .033-.588l4.9-15.233c.326-1.017-.769-1.88-1.593-1.256Z"/></g></svg>