<svg width="70" height="76" fill="none" xmlns="http://www.w3.org/2000/svg"><g opacity=".8" stroke="#E5EEF7" stroke-width="2" stroke-miterlimit="10" stroke-linecap="round" stroke-linejoin="round"><path d="M14.758 45.479H7.191m0 0V8.363C7.191 5.4 9.613 3 12.599 3h23.93c2.986 0 5.408 2.4 5.408 5.363v37.116H34.37m-27.179 0v21.35h34.746v-21.35m2.622 21.35H4.57c-.998 0-1.806.802-1.806 1.791v2.589c0 .99.808 1.791 1.806 1.791h39.99c.998 0 1.806-.802 1.806-1.791V68.62c0-.989-.809-1.79-1.806-1.79Z"/><path d="M13.749 20.783v7.876a2.278 2.278 0 0 0 2.287 2.27h17.056a2.278 2.278 0 0 0 2.287-2.27V11.741a2.278 2.278 0 0 0-2.287-2.27H16.037a2.278 2.278 0 0 0-2.288 2.27v4.045m10.959 34.458 1.855-4.765h-3.998l1.855-4.765"/><path d="M24.564 55.206c5.415 0 9.806-4.355 9.806-9.727s-4.39-9.727-9.806-9.727c-5.416 0-9.806 4.355-9.806 9.727s4.39 9.727 9.806 9.727ZM45.88 36.976h-3.943v8.503h3.942a.83.83 0 0 0 .584-.24.816.816 0 0 0 .242-.579v-6.865a.815.815 0 0 0-.242-.58.829.829 0 0 0-.584-.24Z"/><path d="M52.877 58.755a8.216 8.216 0 0 0 6.153 2.754c4.533 0 8.207-3.644 8.207-8.14v-25.17m0 0h-4.441v25.17c0 2.063-1.686 3.735-3.766 3.735s-3.766-1.672-3.766-3.735v-5.854c0-4.69-3.832-8.49-8.56-8.49v4.404h.353c2.08 0 3.766 1.673 3.766 3.736v6.203c0 .255.012.508.035.756m16.379-25.926V15.253m0 12.945h-4.44c-2.31 0-4.182-1.857-4.182-4.147v-1.312m0-4.918v-.55c0-1.114.911-2.018 2.035-2.018h6.587m0 0v-2.96a4.38 4.38 0 0 0-.46-1.953 4.417 4.417 0 0 0-1.284-1.549l-1.705-1.293m3.449 16.06h-3.459M17.791 18.35h5.863m-5.863-3.86h5.863m2.91 11.963h-7.62c-.306 0-.599-.12-.815-.335a1.14 1.14 0 0 1-.338-.808v-1.877c0-.303.122-.594.338-.809.216-.214.51-.335.815-.335h7.62c.305 0 .598.12.815.335.216.215.337.506.337.81v1.875a1.135 1.135 0 0 1-.337.81 1.155 1.155 0 0 1-.816.334Z"/></g></svg>