<svg width="171" height="113" fill="none" xmlns="http://www.w3.org/2000/svg"><g opacity=".8" stroke="#E0E0E0" stroke-width="2" stroke-miterlimit="10" stroke-linecap="round" stroke-linejoin="round"><path d="M145.485 26.402c14.812 15.173 23.942 35.92 23.942 58.811h-61.658m-45.123 0H1C1 38.704 38.704 1 85.214 1c18.429 0 35.473 5.923 49.331 15.957"/><path d="M85.214 105.706c11.289 0 20.492-9.204 20.492-20.493 0-11.29-9.203-20.492-20.492-20.492-11.29 0-20.493 9.203-20.493 20.492 0 11.29 9.203 20.493 20.493 20.493ZM107.093 25.1l2.389-6.587m-48.548 0 2.4 6.586M126.32 36.22l4.498-5.368m-91.221 0 4.511 5.368M140.6 53.226l6.079-3.497m-122.931 0 6.067 3.497m115.127 21.458 13.425-2.376m-146.318 0 13.436 2.376M85.214 10.94v13.63"/><path d="m101.303 71.765 9.517-30.913-22.11 23.797M40.755 96.985h7.876c3.872 0 7.044 3.173 7.044 7.056 0 3.872-3.172 7.044-7.044 7.044H18.417c-3.872 0-7.044-3.172-7.044-7.044 0-3.883 3.173-7.056 7.044-7.056h7.877M144.122 111.085h7.876c3.884 0 7.056-3.172 7.056-7.044 0-3.883-3.172-7.056-7.056-7.056h-30.202c-3.884 0-7.056 3.173-7.056 7.056 0 3.872 3.172 7.044 7.056 7.044h7.876"/></g></svg>