<svg width="114" height="113" fill="none" xmlns="http://www.w3.org/2000/svg"><g opacity=".8" stroke="#E0E0E0" stroke-width="2" stroke-miterlimit="10" stroke-linecap="round" stroke-linejoin="round"><path d="M1 63.584v30.652c0 9.319 7.557 16.876 16.876 16.876 9.321 0 16.876-7.557 16.876-16.876V47.16H1v9.67M34.752 47.16V11.213S36.618 5.027 44.519 1c7.899 4.027 9.765 10.213 9.765 10.213S56.148 5.027 64.05 1c7.901 4.027 9.765 10.213 9.765 10.213S75.678 5.027 83.579 1c7.901 4.027 9.767 10.213 9.767 10.213S95.21 5.027 103.111 1c3.951 2.013 6.393 4.567 7.845 6.616 1.454 2.05 1.92 3.597 1.92 3.597v8.16"/><path d="M112.876 26.127v68.109c0 9.319-7.557 16.876-16.876 16.876H17.876M45.37 56.056h5.574M58.25 56.056h44.323M45.37 65.773h5.574M58.25 65.773h44.323M45.37 85.974h5.574M58.25 85.974h44.323M45.37 95.502h5.574M58.25 95.502h44.323"/></g></svg>