<svg width="72" height="76" fill="none" xmlns="http://www.w3.org/2000/svg"><g opacity=".8" stroke="#E5EEF7" stroke-width="2" stroke-miterlimit="10" stroke-linecap="round" stroke-linejoin="round"><path d="M59.578 12.23C58.574 8.06 55.27 5 51.346 5c-4.72 0-8.546 4.425-8.546 9.884 0 5.46 3.826 9.885 8.546 9.885 3.92 0 7.223-3.056 8.229-7.22M12.832 28.18l1.646-4.831c1.377-4.045 4.752-6.702 8.51-6.702h19.52M57.266 22.668c.092.223.178.45.257.68l1.644 4.832"/><path d="M56.162 23.63c1.349 1.164 2.39 2.74 3.005 4.55l2.23 6.549M10.603 34.729l2.23-6.549c1.358-3.994 4.692-6.62 8.404-6.62h23.252M14.863 66.957v1.307c0 1.511-1.059 2.736-2.366 2.736H7.475c-1.307 0-2.367-1.225-2.367-2.736V65.31M66.892 65.31v2.954c0 1.511-1.06 2.736-2.367 2.736h-5.022c-1.307 0-2.366-1.225-2.366-2.736v-1.307M22.106 49.922H4.364M67.636 49.922H49.894M43.855 58.098h8.231c.412 0 .807-.19 1.099-.526l1.185-1.371c.857-.99 2.019-1.547 3.23-1.547h10.036M4.364 54.654H14.4c1.212 0 2.373.556 3.23 1.547l1.186 1.371c.29.337.686.526 1.098.526h8.232"/><path d="M25.681 66.63h37.86c2.572 0 4.658-2.413 4.658-5.39V41.93c0-.781-.185-1.547-.534-2.215a3.988 3.988 0 0 0-1.448-1.575l-5.09-3.086H48.856M44.256 35.053H10.873l-5.09 3.085a3.988 3.988 0 0 0-1.448 1.576 4.794 4.794 0 0 0-.534 2.215V61.24c0 2.976 2.086 5.388 4.659 5.388h12.621M57.77 58.755h3.188M11.042 58.755h3.188"/><path d="M7.14 37.89v5.603a1 1 0 0 0 .199.606.762.762 0 0 0 .497.3l8.758 1.194c1.204.164 2.418-.17 3.43-.94l1.564-1.194c.566-.431.43-1.433-.223-1.643l-8.028-2.58a.649.649 0 0 1-.063-.024l-5.07-2.178c-.516-.221-1.065.22-1.065.857ZM64.861 37.89v5.603c0 .223-.07.44-.2.606a.762.762 0 0 1-.497.3l-8.758 1.194c-1.203.164-2.418-.17-3.43-.94l-1.564-1.194c-.566-.431-.43-1.433.223-1.643l8.028-2.58a.649.649 0 0 0 .063-.024l5.07-2.178c.516-.221 1.065.22 1.065.857ZM21.646 41.816h28.707M63.888 32.813h6.26c.572 0 .981-.64.815-1.273-.36-1.369-1.227-3.35-3.233-3.35H65.05c-.153 0-.304.034-.445.101a1.17 1.17 0 0 0-.378.292 1.378 1.378 0 0 0-.252.437 1.533 1.533 0 0 0-.088.515v3.277ZM63.606 32.813h-2.364M8.112 32.813h-6.26c-.572 0-.981-.64-.815-1.273.36-1.369 1.227-3.35 3.233-3.35H6.95c.153 0 .304.034.445.101.141.068.27.167.378.292.108.125.193.274.252.437.058.163.088.338.088.515v3.277ZM8.535 32.813h2.364M22.529 49.922H49.47v1.354c0 3.768-2.64 6.822-5.898 6.822H28.427c-3.258 0-5.898-3.054-5.898-6.822v-1.354Z"/></g></svg>