<svg width="102" height="111" fill="none" xmlns="http://www.w3.org/2000/svg"><g opacity=".8" stroke="#E0E0E0" stroke-width="2" stroke-miterlimit="10" stroke-linecap="round" stroke-linejoin="round"><path d="M19.483 66.984H7.823m0 0V9.331A8.332 8.332 0 0 1 16.156 1h36.873a8.332 8.332 0 0 1 8.333 8.33v57.654h-11.66m-41.88 0v33.164h53.54V66.984m4.04 33.165H3.783A2.782 2.782 0 0 0 1 102.931v4.021a2.782 2.782 0 0 0 2.782 2.782h61.62a2.781 2.781 0 0 0 2.782-2.782v-4.021a2.782 2.782 0 0 0-2.781-2.782Z"/><path d="M17.928 28.623v12.235a3.525 3.525 0 0 0 3.524 3.524h26.28a3.525 3.525 0 0 0 3.525-3.524v-26.28a3.525 3.525 0 0 0-3.524-3.525h-26.28a3.525 3.525 0 0 0-3.525 3.524v6.285m16.886 53.524 2.859-7.401h-6.16l2.858-7.401"/><path d="M34.592 82.094c8.345 0 15.11-6.765 15.11-15.11 0-8.344-6.765-15.109-15.11-15.109-8.345 0-15.11 6.765-15.11 15.11 0 8.344 6.765 15.109 15.11 15.109ZM67.436 53.776h-6.074v13.208h6.074a1.272 1.272 0 0 0 1.272-1.272V55.048a1.272 1.272 0 0 0-1.272-1.272Z"/><path d="M78.218 87.607a12.615 12.615 0 0 0 9.482 4.279c6.984 0 12.646-5.662 12.646-12.646V40.142m0 0h-6.843V79.24a5.803 5.803 0 0 1-11.606 0v-9.092c0-7.285-5.905-13.19-13.19-13.19v6.843h.545a5.803 5.803 0 0 1 5.803 5.803v9.636c0 .396.018.787.053 1.174m25.238-40.272v-20.11m0 20.11h-6.843a6.442 6.442 0 0 1-6.442-6.443v-2.038m0-7.638v-.854a3.136 3.136 0 0 1 3.136-3.136h10.149m0 0v-4.598a6.852 6.852 0 0 0-2.687-5.439l-2.628-2.01m5.315 24.948h-5.33m-70.86-8.09h9.035m-9.035-5.995h9.035m4.482 18.582h-11.74a1.777 1.777 0 0 1-1.777-1.776V32.74a1.777 1.777 0 0 1 1.777-1.777h11.74a1.777 1.777 0 0 1 1.776 1.777v2.914a1.774 1.774 0 0 1-1.776 1.777Z"/></g></svg>