<svg width="99" height="98" fill="none" xmlns="http://www.w3.org/2000/svg"><path fill-rule="evenodd" clip-rule="evenodd" d="M41.708.628c-.517.517-.94 22.637-.94 49.156V98l8.944-.391 8.943-.392V.464L50.65.077c-4.403-.214-8.427.034-8.943.551ZM10.603 18.692C6.102 23.484 1.093 35.838.205 44.335-1.15 57.29 4.355 73.66 12.517 80.955c2.469 2.206 2.804 2.052 8.796-4.034l6.23-6.327-3.247-4.403c-6.67-9.043-6.994-24.485-.703-33.326 3.623-5.087 3.313-6.648-2.423-12.252-5.872-5.736-6.823-5.908-10.567-1.921Zm67.488 2.747-5.625 5.735 4.025 7.654c5.436 10.338 5.398 17.469-.156 28.586l-4.182 8.371 6.24 5.898c6.057 5.723 6.318 5.828 8.852 3.535 1.435-1.3 4.464-6.13 6.728-10.732 4.834-9.82 6.335-22.867 3.833-33.3-1.767-7.37-9.965-21.48-12.48-21.48-.884 0-4.14 2.58-7.235 5.733Z" fill="#fff"/></svg>