<svg width="20" height="13" fill="none" xmlns="http://www.w3.org/2000/svg"><path opacity=".8" d="M.322 1.638h3.491c.066 0 .13.02.186.057.056.038.1.09.127.153a21.565 21.565 0 0 0 2.96 4.938c.022.039.055.07.094.09a.23.23 0 0 0 .246-.02.248.248 0 0 0 .08-.104c.37-.935 1.047-3.215-.266-4.835a.294.294 0 0 1-.058-.247.295.295 0 0 1 .054-.117.278.278 0 0 1 .097-.081 4.556 4.556 0 0 1 3.903-.069c.13.06.241.16.32.284a.8.8 0 0 1 .12.42l.294 4.699a.351.351 0 0 0 .115.259.318.318 0 0 0 .264.074c1.458-.328 2.337-2.619 3.174-5.007a.74.74 0 0 1 .26-.355.689.689 0 0 1 .408-.134h3.216a.414.414 0 0 1 .33.155.456.456 0 0 1 .1.364c-.304 1.693-1.935 3.915-2.805 4.952a1.007 1.007 0 0 0-.222.634c0 .232.079.457.222.634l2.88 3.587a.406.406 0 0 1 .053.422.391.391 0 0 1-.14.167.365.365 0 0 1-.203.062h-3.627c-.149 0-.295-.033-.431-.095a1.087 1.087 0 0 1-.36-.267l-2.542-2.217a.357.357 0 0 0-.245-.14.336.336 0 0 0-.265.09c-.313.402-.29.896-.44 2.022a.728.728 0 0 1-.235.438.669.669 0 0 1-.451.169H8.562a2.248 2.248 0 0 1-1.023-.24C6.109 11.675 2.205 9.16.013 2.103a.384.384 0 0 1 .05-.309.34.34 0 0 1 .259-.156Z" fill="#D9D9D9"/></svg>