<svg width="20" height="14" viewBox="0 0 20 14" fill="none" xmlns="http://www.w3.org/2000/svg">
<path opacity="0.8" d="M19.5737 2.16975C19.4599 1.74489 19.2357 1.35747 18.9239 1.04651C18.6121 0.735551 18.2236 0.512044 17.7975 0.398523C16.2478 -2.69212e-06 10 0 10 0C10 0 3.75222 1.08213e-06 2.19361 0.416239C1.76756 0.52976 1.37904 0.75326 1.06721 1.06422C0.755376 1.37518 0.531248 1.76261 0.417408 2.18746C1.08517e-06 3.73729 0 6.98306 0 6.98306C0 6.98306 1.08517e-06 10.2266 0.417408 11.7809C0.532332 12.204 0.757005 12.5894 1.06882 12.8984C1.38064 13.2074 1.76859 13.4291 2.19361 13.541C3.75222 13.9484 10 13.9484 10 13.9484C10 13.9484 16.2478 13.9484 17.8064 13.5322C18.2314 13.4202 18.6194 13.1986 18.9312 12.8896C19.243 12.5806 19.4677 12.1951 19.5826 11.772C20 10.2222 20 6.9742 20 6.9742C20 6.9742 19.9911 3.724 19.5737 2.16975ZM8.00178 9.96314V3.98526L13.1927 6.9742L8.00178 9.96314Z" fill="#D9D9D9"/>
</svg>
