<svg width="18" height="15" fill="none" xmlns="http://www.w3.org/2000/svg"><path opacity=".8" d="M17.945.314a.39.39 0 0 0-.25-.289 1.366 1.366 0 0 0-.71.05S1.223 5.78.32 6.41c-.192.136-.25.216-.29.307-.154.45.33.648.33.648l4.064 1.333a.43.43 0 0 0 .204 0c.925-.588 9.299-5.91 9.784-6.088.074-.022.132 0 .117.056-.195.684-7.47 7.189-7.47 7.189a.397.397 0 0 0-.044.075l-.377 4.056s-.16 1.242 1.074 0A33.956 33.956 0 0 1 9.85 12.02c1.396.97 2.9 2.044 3.548 2.605a1.138 1.138 0 0 0 .825.32c.614-.024.787-.705.787-.705s2.873-11.635 2.968-13.194c0-.15.023-.251.023-.354a1.224 1.224 0 0 0-.055-.378Z" fill="#D9D9D9"/></svg>