<svg width="24" height="24" viewBox="0 0 24 24" fill="none" xmlns="http://www.w3.org/2000/svg">
<path d="M3.45001 8.19991L8.45001 4.86991C8.61329 4.76239 8.80451 4.70508 9.00001 4.70508C9.19552 4.70508 9.38673 4.76239 9.55001 4.86991L14.45 8.12991C14.6133 8.23744 14.8045 8.29475 15 8.29475C15.1955 8.29475 15.3867 8.23744 15.55 8.12991L19.45 5.53991C19.6004 5.44086 19.7748 5.38427 19.9547 5.3761C20.1346 5.36793 20.3133 5.40849 20.4721 5.49351C20.6308 5.57852 20.7637 5.70482 20.8566 5.85908C20.9495 6.01334 20.9991 6.18983 21 6.36991V14.9999C21.0008 15.1663 20.9601 15.3303 20.8815 15.477C20.8029 15.6236 20.689 15.7484 20.55 15.8399L15.55 19.1699C15.3867 19.2774 15.1955 19.3347 15 19.3347C14.8045 19.3347 14.6133 19.2774 14.45 19.1699L9.55001 15.9099C9.38673 15.8024 9.19552 15.7451 9.00001 15.7451C8.80451 15.7451 8.61329 15.8024 8.45001 15.9099L4.55001 18.4999C4.39677 18.601 4.21866 18.6579 4.0352 18.6645C3.85174 18.6711 3.67001 18.627 3.50993 18.5372C3.34985 18.4473 3.21759 18.3151 3.12764 18.1551C3.0377 17.9951 2.99354 17.8134 3.00001 17.6299V8.99991C3.00569 8.84032 3.04951 8.68442 3.1278 8.54523C3.20609 8.40605 3.31658 8.28764 3.45001 8.19991Z" stroke="#E5EEF7" stroke-linecap="round" stroke-linejoin="round"/>
<path d="M9 4.69995V15.7" stroke="#E5EEF7" stroke-linecap="round" stroke-linejoin="round"/>
<path d="M15 8.30005V19.3" stroke="#E5EEF7" stroke-linecap="round" stroke-linejoin="round"/>
</svg>
