<svg width="24" height="24" viewBox="0 0 24 24" fill="none" xmlns="http://www.w3.org/2000/svg">
<path d="M3.45001 8.20004L8.45001 4.87004C8.61329 4.76251 8.80451 4.7052 9.00001 4.7052C9.19552 4.7052 9.38673 4.76251 9.55001 4.87004L14.45 8.13004C14.6133 8.23756 14.8045 8.29487 15 8.29487C15.1955 8.29487 15.3867 8.23756 15.55 8.13004L19.45 5.54004C19.6004 5.44099 19.7748 5.38439 19.9547 5.37622C20.1346 5.36805 20.3133 5.40862 20.4721 5.49363C20.6308 5.57864 20.7637 5.70494 20.8566 5.8592C20.9495 6.01346 20.9991 6.18995 21 6.37004V15C21.0008 15.1664 20.9601 15.3304 20.8815 15.4771C20.8029 15.6238 20.689 15.7485 20.55 15.84L15.55 19.17C15.3867 19.2776 15.1955 19.3349 15 19.3349C14.8045 19.3349 14.6133 19.2776 14.45 19.17L9.55001 15.91C9.38673 15.8025 9.19552 15.7452 9.00001 15.7452C8.80451 15.7452 8.61329 15.8025 8.45001 15.91L4.55001 18.5C4.39677 18.6011 4.21866 18.6581 4.0352 18.6646C3.85174 18.6712 3.67001 18.6272 3.50993 18.5373C3.34985 18.4475 3.21759 18.3153 3.12764 18.1552C3.0377 17.9952 2.99354 17.8135 3.00001 17.63V9.00004C3.00569 8.84045 3.04951 8.68454 3.1278 8.54536C3.20609 8.40617 3.31658 8.28776 3.45001 8.20004Z" stroke="white" stroke-width="1.5" stroke-linecap="round" stroke-linejoin="round"/>
<path d="M9 4.69995V15.7" stroke="white" stroke-width="1.5" stroke-linecap="round" stroke-linejoin="round"/>
<path d="M15 8.30005V19.3" stroke="white" stroke-width="1.5" stroke-linecap="round" stroke-linejoin="round"/>
</svg>
