<svg width="24" height="24" viewBox="0 0 24 24" fill="none" xmlns="http://www.w3.org/2000/svg">
<path d="M3.5 8.5H14.5" stroke="#D9D9D9" stroke-width="1.5" stroke-linecap="round" stroke-linejoin="round"/>
<path d="M19 10C19.8284 10 20.5 9.32843 20.5 8.5C20.5 7.67157 19.8284 7 19 7C18.1716 7 17.5 7.67157 17.5 8.5C17.5 9.32843 18.1716 10 19 10Z" stroke="#D9D9D9" stroke-width="1.5" stroke-linecap="round" stroke-linejoin="round"/>
<path d="M20.5 14.5H9.5" stroke="#D9D9D9" stroke-width="1.5" stroke-linecap="round" stroke-linejoin="round"/>
<path d="M5 16C5.82843 16 6.5 15.3284 6.5 14.5C6.5 13.6716 5.82843 13 5 13C4.17157 13 3.5 13.6716 3.5 14.5C3.5 15.3284 4.17157 16 5 16Z" stroke="#D9D9D9" stroke-width="1.5" stroke-linecap="round" stroke-linejoin="round"/>
</svg>
