<svg width="174" height="374" viewBox="0 0 174 374" fill="none" xmlns="http://www.w3.org/2000/svg">
<g filter="url(#filter0_b_633_17463)">
<path d="M-7.09171 193.335L-44.5764 183.706L-26.0873 0H163.109V43.3293H13.6768L2.53275 143.671C9.28675 139.785 17.8137 136.154 28.1135 132.775C38.5822 129.397 50.5706 127.707 64.0786 127.707C81.1324 127.707 96.4134 130.663 109.921 136.576C123.429 142.319 134.911 150.597 144.367 161.408C153.991 172.219 161.336 185.226 166.402 200.43C171.467 215.633 174 232.61 174 251.36C174 269.098 171.552 285.399 166.655 300.264C161.927 315.13 154.751 328.137 145.127 339.286C135.502 350.266 123.345 358.797 108.655 364.878C94.1339 370.959 76.9956 374 57.2402 374C42.3814 374 28.2824 371.973 14.9432 367.919C1.77292 363.696 -10.0466 357.361 -20.5153 348.915C-30.8151 340.299 -39.2576 329.657 -45.8428 316.988C-52.2591 304.149 -56.3115 289.115 -58 271.885H-13.4236C-11.3974 285.737 -7.34498 297.392 -1.26638 306.852C4.81223 316.312 12.7482 323.491 22.5415 328.39C32.5036 333.12 44.0699 335.485 57.2402 335.485C68.3843 335.485 78.262 333.542 86.8734 329.657C95.4847 325.772 102.745 320.197 108.655 312.934C114.565 305.67 119.039 296.886 122.079 286.581C125.287 276.277 126.891 264.706 126.891 251.867C126.891 240.211 125.287 229.4 122.079 219.434C118.87 209.467 114.058 200.767 107.642 193.335C101.394 185.902 93.7118 180.159 84.5939 176.104C75.476 171.881 65.0073 169.77 53.1878 169.77C37.4847 169.77 25.5808 171.881 17.476 176.104C9.54002 180.327 1.3508 186.071 -7.09171 193.335Z" fill="white" fill-opacity="0.05"/>
</g>
<defs>
<filter id="filter0_b_633_17463" x="-62" y="-4" width="240" height="382" filterUnits="userSpaceOnUse" color-interpolation-filters="sRGB">
<feFlood flood-opacity="0" result="BackgroundImageFix"/>
<feGaussianBlur in="BackgroundImageFix" stdDeviation="2"/>
<feComposite in2="SourceAlpha" operator="in" result="effect1_backgroundBlur_633_17463"/>
<feBlend mode="normal" in="SourceGraphic" in2="effect1_backgroundBlur_633_17463" result="shape"/>
</filter>
</defs>
</svg>
