<svg width="53" height="22" viewBox="0 0 53 22" fill="none" xmlns="http://www.w3.org/2000/svg">
<g clip-path="url(#clip0_1147_5017)">
<path fill-rule="evenodd" clip-rule="evenodd" d="M0.615699 18.3485C0.625345 18.2619 0.644552 18.1753 0.663845 18.0982L0.721551 17.7806C0.731197 17.7325 0.731197 17.6748 0.750446 17.617C0.76005 17.5689 0.769653 17.5304 0.779299 17.4919C0.788945 17.4053 0.808152 17.3187 0.817798 17.2225C0.827444 17.1359 0.856298 17.0492 0.865944 16.9819C0.865944 16.9241 0.952588 16.4333 0.971795 16.3948C0.971795 16.3178 1.08733 15.596 1.10654 15.5575C1.11619 15.4228 1.16425 15.2687 1.17389 15.134C1.18354 14.98 1.24129 14.7779 1.26054 14.6239C1.27018 14.4892 1.30868 14.3159 1.32793 14.1812C1.33758 14.1042 1.34714 14.0465 1.36643 13.9598C1.37608 13.9021 1.39533 13.8443 1.39533 13.7673C1.42418 13.6711 1.43383 13.4883 1.46268 13.4112C1.47233 13.2669 1.51083 13.1225 1.53008 12.9781C1.53968 12.9204 1.54928 12.8819 1.55893 12.8145C1.56857 12.7664 1.55893 12.7279 1.58782 12.7086C1.58782 12.5835 1.63593 12.4584 1.63593 12.3525C1.66482 12.1889 1.70332 12.0157 1.72257 11.852C1.74182 11.7365 1.76107 11.6307 1.78032 11.5152C1.78992 11.4767 1.79953 11.3901 1.80917 11.3516C1.81882 11.2939 1.82842 11.2746 1.82842 11.2169C1.83803 11.1302 1.85727 11.0436 1.87652 10.957C1.88617 10.8896 1.91502 10.7837 1.91502 10.726C1.93427 10.6298 1.95357 10.5239 1.96317 10.4373C1.97282 10.2448 2.04981 10.0523 2.04981 9.85021C2.06902 9.80206 2.09796 9.63846 2.09796 9.59032C2.11717 9.49407 2.13646 9.38822 2.1461 9.30158L2.23275 8.77223C2.24235 8.73374 2.24235 8.72409 2.24235 8.68559C2.24235 8.66634 2.24235 8.66634 2.252 8.64709L2.26164 8.62784C2.26164 8.48349 2.30975 8.31024 2.329 8.1755C2.329 8.11779 2.37714 7.83865 2.39639 7.80976C2.39639 7.68466 2.43489 7.63655 2.43489 7.52101C2.44454 7.47287 2.48304 7.29966 2.48304 7.24192C2.48304 7.17456 2.50224 7.14571 2.51189 7.07832L2.58889 6.67407C2.58889 6.54897 2.60814 6.49118 2.62743 6.37568C2.63703 6.33719 2.66593 6.15429 2.67553 6.10623C2.68518 6.01959 2.70443 5.96184 2.71403 5.86564C2.72368 5.79824 2.80067 5.25925 2.82957 5.2304C2.82957 5.14376 2.83917 5.12455 2.85842 5.04755C2.86807 4.98016 2.90657 4.64331 2.93546 4.61441C2.93546 4.50856 2.95467 4.43156 2.97396 4.32567C2.99317 4.22942 2.99317 4.16207 3.02207 4.08507L3.12796 3.47873C3.12796 3.40169 3.2146 2.882 3.23381 2.85314C3.23381 2.7665 3.31081 2.30455 3.33966 2.2468C3.33966 2.17941 3.38781 1.88106 3.40706 1.84252C3.40706 1.75592 3.43591 1.60196 3.4552 1.51532C3.4552 1.45757 3.5803 0.745379 3.58991 0.706837C3.58991 0.572133 3.63805 0.40849 3.6573 0.273743C3.6573 0.196745 3.6669 0.215995 3.67651 0.158203H24.6097L24.5135 0.793396C24.4943 0.889644 24.5231 0.831895 24.475 0.870394L24.4846 0.91854C24.4557 1.06289 24.3787 1.69813 24.3306 1.76548C24.3402 1.85212 24.2536 2.42957 24.2151 2.48732C24.2247 2.58352 24.1381 3.0648 24.1092 3.18026L24.0515 3.5075L23.8686 4.50848C23.8783 4.57583 23.7916 5.10517 23.7628 5.15332C23.7724 5.29767 23.7146 5.51906 23.6857 5.67305L23.5991 6.1831C23.5895 6.20235 23.5895 6.20235 23.5895 6.22165L23.5798 6.2505C23.5895 6.3275 23.5702 6.51039 23.5221 6.5681C23.5317 6.67395 23.4836 6.87609 23.4644 6.98194C23.4452 7.09744 23.3682 7.65563 23.3297 7.70373C23.3393 7.79038 23.2719 8.25233 23.2238 8.31012C23.2334 8.35822 23.1853 8.75281 23.1371 8.81056C23.1564 8.93566 23.0409 9.4073 23.0216 9.5805C22.9928 9.6864 22.9831 9.80189 22.9639 9.90775L22.8965 10.2446C22.9062 10.2927 22.8484 10.7836 22.7907 10.8605C22.8099 10.9376 22.781 11.1204 22.7329 11.1782C22.7426 11.2648 22.7137 11.361 22.7041 11.4573L22.5982 11.9866C22.6078 12.054 22.579 12.2754 22.5405 12.3235C22.5501 12.4197 22.502 12.7566 22.4538 12.8239C22.4635 12.9202 22.4346 13.026 22.4153 13.1223C22.4057 13.1897 22.3865 13.3629 22.348 13.411C22.3576 13.4688 22.348 13.5169 22.3383 13.5747C22.3383 13.6035 22.3287 13.6324 22.3191 13.6613C22.3095 13.719 22.3191 13.6902 22.2902 13.7287C22.2999 13.7961 22.2902 13.8345 22.2806 13.8923C22.2806 13.9115 22.271 13.95 22.271 13.9693C22.2613 14.027 22.271 13.9982 22.2421 14.0367L22.1844 14.489C22.1459 14.6045 22.2229 14.3928 22.1747 14.5179C22.1747 14.5179 22.1651 14.5371 22.1651 14.5275C22.1651 14.5275 22.1651 14.5372 22.1555 14.5372C22.1651 14.5949 22.1555 14.643 22.1458 14.7008L22.1073 14.8451C22.1266 14.9222 22.0592 15.3263 22.0207 15.3841C22.0303 15.4803 21.963 15.9327 21.9149 15.9905C21.9245 16.0867 21.8764 16.4428 21.8282 16.5005C21.8379 16.5776 21.8186 16.7508 21.7801 16.8085C21.7897 16.8952 21.7609 17.001 21.7416 17.0973L21.6742 17.5208C21.6646 17.5882 21.6261 17.8576 21.5972 17.9153C21.6164 18.0116 21.578 18.1367 21.5587 18.2426C21.5395 18.3388 21.5395 18.4736 21.4913 18.541C21.5009 18.6276 21.4721 18.7239 21.4624 18.8105C21.4528 18.8875 21.4432 19.003 21.4047 19.051C21.4239 19.1666 21.3566 19.4072 21.3373 19.5323C21.3181 19.6574 21.3181 19.8884 21.2507 19.975C21.2603 20.0712 21.2122 20.4273 21.164 20.4851C21.1737 20.5717 21.0967 21.0529 21.0582 21.101C21.0678 21.2165 21.0005 21.5341 20.9812 21.6688C20.9619 21.8132 20.9908 21.8324 20.8464 21.8421H2.75236V21.8324C2.17487 21.8324 1.59743 21.8324 1.02959 21.8421H-0.000244141C0.0093593 21.7651 0.0286089 21.6784 0.0479011 21.5918L0.124899 21.0914C0.134503 21.0529 0.153752 20.8796 0.173045 20.8604C0.173045 20.8027 0.240397 20.3599 0.259689 20.331C0.259689 20.2637 0.278896 20.1674 0.288542 20.1097C0.500287 18.8777 0.336687 19.9461 0.586932 18.3195L0.615785 18.3484L0.615699 18.3485ZM5.00443 20.0232H8.25752C9.2681 15.0473 10.6155 7.11673 11.5106 1.90991L8.28646 1.90987C8.32496 3.05516 5.15851 19.1665 5.01412 20.0328L5.00447 20.0232H5.00443ZM13.1467 14.7586C13.1178 14.8259 13.1082 14.9511 13.0986 15.0376C13.0889 15.1243 13.0504 15.2302 13.0504 15.3264C13.0504 15.3841 13.0216 15.4611 13.0119 15.5189C13.0023 15.5863 12.9831 15.6729 12.9735 15.7499C12.9542 15.7788 12.9061 16.0771 12.9061 16.1445C12.8772 16.183 12.8002 16.6739 12.8002 16.7605L12.6944 17.2994C12.6751 17.4438 12.627 17.5593 12.6462 17.7421C12.6751 18.0309 12.9253 18.2137 13.2333 18.1656C13.4643 18.1271 13.445 18.1079 13.599 18.0212C13.6567 17.925 13.8878 17.7325 13.8685 17.5785C13.907 17.5208 13.9743 17.0781 13.984 17.0107C14.0129 16.8856 14.0898 16.5006 14.0802 16.4043L14.0898 16.3755C14.0898 16.3658 14.1669 16.1445 14.1476 16.0097L14.1764 15.9135C14.1861 15.8846 14.1861 15.8461 14.1957 15.8076C14.2053 15.7402 14.2342 15.6633 14.2149 15.5959C14.2245 15.5767 14.2245 15.5959 14.2341 15.5574L14.2534 15.4707C14.263 15.4033 14.263 15.4033 14.263 15.3456C14.3111 15.2879 14.3304 15.028 14.3496 14.9318C14.3689 14.8067 14.4362 14.5372 14.4266 14.4314L14.494 14.1426C14.5132 14.0367 14.5421 13.9308 14.5325 13.8346C14.5614 13.7961 14.5614 13.7384 14.5517 13.6806C14.6383 13.5459 14.5036 13.0262 14.4555 12.8818C14.4074 12.7471 14.1571 12.3428 14.0802 12.3043C14.0609 12.2562 13.8492 11.9674 13.8011 11.9386C13.7818 11.8808 13.8011 11.929 13.7626 11.8808L13.4931 11.544L13.4257 11.4382C13.3391 11.3323 12.9349 10.8029 12.8963 10.7933C12.8771 10.7259 12.7135 10.5334 12.6558 10.466C12.6076 10.4083 12.444 10.1773 12.4055 10.1581C12.3863 10.1196 12.1552 9.79233 12.1167 9.77308C12.0686 9.65759 11.982 9.55169 11.9146 9.43624C11.8858 9.38809 11.8472 9.32074 11.8184 9.25335C11.7992 9.20524 11.7703 9.109 11.7414 9.0705C11.7029 8.8491 11.6837 8.74325 11.6932 8.50266L11.7799 7.88671L11.9243 7.07823C11.9531 6.94353 12.0301 6.59703 12.0109 6.48154C12.059 6.41414 12.0975 6.10619 12.0975 6.0099C12.1361 5.96176 12.2131 5.47091 12.2034 5.40356C12.2708 5.29767 12.2996 4.84532 12.3478 4.68172C12.367 4.54702 12.444 4.24863 12.4344 4.13317C12.4536 4.11397 12.4441 4.13317 12.4536 4.09468L12.4921 3.93108C12.5114 3.86368 12.5403 3.78668 12.5307 3.71933C12.5595 3.68083 12.5499 3.70008 12.5692 3.64229C12.5788 3.61344 12.5884 3.59419 12.598 3.56529C12.6172 3.50758 12.6365 3.46909 12.6365 3.40169C12.6847 3.35355 12.7424 3.18995 12.7713 3.11295L12.9253 2.8242C12.9734 2.79531 13.0215 2.71831 13.06 2.67021C13.1082 2.60281 13.1467 2.57396 13.2044 2.52581C13.2525 2.48732 13.522 2.30447 13.5316 2.28522C13.6182 2.25636 13.7145 2.18901 13.8107 2.15051C13.9069 2.11197 13.9936 2.07347 14.0994 2.04462C14.3208 1.97727 14.5133 1.94841 14.7539 1.92912C15.4373 1.90991 16.1399 1.92912 16.8328 1.92912C17.4969 1.92912 18.1224 1.98683 18.4786 2.37182C18.5556 2.44882 18.7192 2.67021 18.7673 2.80495C18.8058 2.92045 18.854 3.00705 18.8828 3.1322C18.9117 3.2669 18.9213 3.39204 18.9213 3.55564C18.9213 3.61339 18.9117 3.71929 18.9021 3.79624C18.8925 3.87324 18.8733 3.96949 18.8733 4.05613C18.8636 4.14278 18.8348 4.24863 18.8251 4.33523C18.8155 4.43148 18.7962 4.56623 18.7674 4.64322C18.7674 4.71058 18.7385 4.81647 18.7289 4.89347C18.7097 4.98967 18.6904 5.08596 18.6807 5.17257C18.6711 5.20142 18.6326 5.42281 18.6326 5.46131C18.623 5.5287 18.6037 5.60566 18.5845 5.69226C18.5653 5.78851 18.546 5.87515 18.546 5.97136C18.5171 6.058 18.5075 6.1735 18.4882 6.27935C18.469 6.40445 18.4497 6.50074 18.4305 6.6162C18.4305 6.68359 18.392 6.84715 18.3824 6.90494C18.3727 6.96269 18.3727 6.98194 18.3632 7.04933C18.3535 7.09744 18.3343 7.15519 18.3343 7.22254C18.3247 7.28993 18.3054 7.37653 18.2861 7.45353C18.2669 7.54018 18.2476 7.63638 18.2476 7.71338C18.238 7.77113 18.2188 7.84813 18.1995 7.92513L15.6298 7.93477C15.6298 7.75192 15.7453 7.42468 15.7356 7.25139C15.7838 7.19368 15.8319 6.8279 15.8223 6.74134C15.8415 6.71245 15.8319 6.74134 15.8415 6.6932L15.9185 6.1831C15.9762 6.11571 16.0244 5.56716 16.0629 5.44202C16.0821 5.30727 16.1399 5.10517 16.1303 4.98003C16.1688 4.92232 16.1688 4.77793 16.1976 4.71058L16.2073 4.61433L16.2361 4.48923C16.3131 4.11388 16.1688 3.78664 15.7742 3.78664C15.4566 3.78664 15.1293 3.97914 15.0331 4.24863C15.0139 4.29677 15.0139 4.32563 14.9946 4.36413C14.9753 4.46037 14.9464 4.59512 14.9464 4.69137C14.9272 4.77801 14.9175 4.83572 14.8983 4.93197C14.8791 5.02821 14.8598 5.10521 14.8598 5.21106L14.8213 5.35542L14.7924 5.52866C14.7732 5.65376 14.7443 5.76926 14.7347 5.8848C14.7058 5.90401 14.7155 5.9618 14.7058 6.0099C14.6962 6.07725 14.6866 6.09655 14.6769 6.15425C14.6673 6.2409 14.6288 6.366 14.6288 6.45264C14.6096 6.52964 14.5999 6.59699 14.5806 6.69324C14.5614 6.78944 14.5421 6.86648 14.5421 6.97234C14.5133 7.01084 14.4748 7.28993 14.4651 7.38618C14.4555 7.45353 14.4363 7.72303 14.4555 7.79042C14.4747 7.84813 14.4363 7.80963 14.4844 7.83857C14.4362 7.97327 14.6095 8.31016 14.6865 8.44491C14.7346 8.5219 14.6769 8.47376 14.7539 8.5123C14.7442 8.5604 14.7442 8.5219 14.7539 8.5604C14.7539 8.57965 14.7731 8.5989 14.7827 8.61815L15.2447 9.24374C15.2832 9.27259 15.2158 9.24374 15.2832 9.27259C15.2832 9.3303 15.5142 9.59984 15.5623 9.63834L15.9088 10.0426C15.9088 10.0522 15.8896 10.0522 15.9377 10.1196L16.3708 10.6586L16.6114 10.957C16.6788 11.0436 16.6499 11.0243 16.7076 11.0532C16.7173 11.1109 16.852 11.2745 16.8905 11.3419C16.9675 11.4574 17.0349 11.621 17.0926 11.6499C17.0734 11.7076 17.083 11.6691 17.1118 11.7365C17.1311 11.7654 17.1311 11.775 17.1503 11.8232L17.2754 12.1793C17.314 12.3237 17.2851 12.3333 17.3332 12.3718C17.285 12.4873 17.314 12.6606 17.314 12.7856C17.3043 12.8627 17.2947 12.8819 17.2947 12.9782C17.2755 13.007 17.2081 13.4786 17.2081 13.5556C17.1792 13.5845 17.2081 13.546 17.1889 13.5941C17.1889 13.6037 17.1792 13.6615 17.1792 13.6615C17.1696 13.7289 17.16 13.7673 17.16 13.8251C17.1408 13.8636 17.0734 14.2582 17.0734 14.3159C17.0541 14.393 17.0349 14.5085 17.0252 14.6047C17.0156 14.7106 16.9771 14.8068 16.9771 14.9319C16.9579 14.9512 16.9579 14.9993 16.9482 15.0378C16.9386 15.0955 16.9386 15.1245 16.929 15.1725C16.9098 15.2688 16.9001 15.3747 16.8809 15.4613C16.8809 15.5575 16.8327 15.6923 16.8327 15.8078C16.8135 15.8367 16.7846 16.0292 16.7846 16.0869C16.7654 16.2216 16.7269 16.3563 16.7172 16.5007C16.698 16.5488 16.6498 16.8375 16.6498 16.9145C16.621 16.9338 16.621 17.0107 16.621 17.0493C16.6113 17.1166 16.6017 17.1455 16.5921 17.2129C16.5729 17.3284 16.5439 17.4535 16.5344 17.569C16.5151 17.6171 16.4959 17.723 16.4862 17.7807C16.467 17.8481 16.4381 17.954 16.4285 18.031L16.2649 18.493C16.1782 18.7047 16.0724 18.8298 16.0339 18.9261C16.0147 18.9357 15.8992 19.0993 15.8703 19.1378C15.8318 19.186 15.8222 19.1956 15.7837 19.2437L15.6778 19.3592C15.6008 19.465 15.2928 19.6864 15.1485 19.7441C15.0714 19.773 15.0041 19.7923 14.9271 19.8404C14.8404 19.85 14.5036 19.9655 14.1956 19.9751L13.3391 19.9943C13.1754 19.9943 13.0696 20.0136 12.9252 20.0136L11.8088 20.0137C11.7029 20.0137 11.6837 19.9944 11.5874 19.9944C11.5393 19.9944 11.4045 19.9656 11.3468 19.9559C11.3083 19.9463 11.2794 19.9463 11.2313 19.9367C11.1832 19.9271 11.1639 19.9078 11.1062 19.9078C10.7694 19.8308 10.6731 19.7153 10.4999 19.5902C10.471 19.571 10.4902 19.5806 10.471 19.571C10.4421 19.5229 10.471 19.5614 10.4325 19.5133C10.4228 19.4941 10.4133 19.4941 10.4036 19.4748L10.0764 18.8588C10.0667 18.7722 10.0379 18.6952 10.0282 18.6086C10.0186 18.5124 10.0379 18.4257 10.0186 18.3391C10.0475 18.2814 10.086 17.8386 10.0956 17.7328C10.1148 17.5788 10.1918 17.2612 10.1823 17.1361C10.2208 17.0783 10.2496 16.8762 10.24 16.8088L10.2496 16.7799C10.2496 16.7799 10.3363 16.4623 10.317 16.3372C10.3555 16.2891 10.4517 15.7213 10.4421 15.6346L10.4806 15.4903C10.4902 15.4229 10.5095 15.3844 10.4902 15.3267L10.5094 15.2689C10.5094 15.2593 10.5191 15.2208 10.5191 15.2112C10.5287 15.1727 10.5287 15.1342 10.5383 15.0957C10.5479 15.0187 10.5768 14.9321 10.5672 14.8551C10.6153 14.7877 10.6634 14.4701 10.6538 14.3739C10.6923 14.3162 10.7693 13.7772 10.7885 13.6617C10.8463 13.6136 12.0012 13.6425 12.0686 13.6425H13.3776L13.2814 14.2103L13.2428 14.4317C13.2236 14.5375 13.1851 14.6434 13.1851 14.7589H13.1466L13.1467 14.7586Z" fill="#FAFAFA"/>
<path fill-rule="evenodd" clip-rule="evenodd" d="M32.2997 8.52215L32.3767 9.73488C32.3863 9.80227 32.3863 9.85037 32.3863 9.94662C32.3863 10.0429 32.4056 10.0525 32.4056 10.1487C32.4056 10.4182 32.4537 10.6973 32.4537 10.9764L32.4826 11.371C32.5018 11.5154 32.5018 11.6501 32.5018 11.7945C32.5018 11.91 32.5307 12.0736 32.5403 12.1891L32.5692 12.7859C32.5692 12.8821 32.5884 12.9014 32.5884 12.988L32.6365 13.8157C32.6365 13.9119 32.6558 13.9215 32.6558 14.0178C32.6558 14.2584 32.6847 14.3739 32.6847 14.6337L32.7232 15.0475L31.01 15.0475L31.3276 13.4114C31.3758 13.1323 31.4432 12.8724 31.4912 12.5932C31.5105 12.4585 31.5394 12.3334 31.5683 12.189C31.5971 12.0447 31.626 11.9196 31.6453 11.7752L31.9629 10.139C32.0206 9.86958 32.0591 9.59048 32.1265 9.32095L32.242 8.71456C32.2516 8.67606 32.2516 8.66646 32.2612 8.60871L32.2901 8.50286L32.2997 8.52207L32.2997 8.52215ZM41.5777 11.3903H39.9127C39.8453 11.3903 39.8742 11.3325 39.8742 11.2555L40.0667 8.20456C40.0667 8.10831 40.0859 8.09871 40.0859 8.01206L40.1436 6.99188C40.1532 6.92448 40.1532 6.86678 40.1532 6.78974C40.1532 6.61653 40.2014 6.18339 40.2014 5.9813C40.2014 5.88509 40.2206 5.8658 40.2206 5.7792L40.2398 5.36535C40.2494 5.24986 40.2687 5.07661 40.2687 4.95151H42.0492C42.5401 4.95151 42.3957 5.31725 42.3957 5.70224L42.1743 9.14779C42.1743 9.22478 42.184 9.29214 42.1743 9.36918C42.1262 9.80227 42.1262 10.3605 42.0781 10.784C42.0492 11.0438 42.1551 11.3807 41.5777 11.3807V11.3903L41.5777 11.3903ZM29.9321 20.3603C29.9706 20.1774 30.0091 19.9753 30.0476 19.7924C30.0861 19.5903 30.1246 19.4074 30.1631 19.2053C30.2016 19.0128 30.2401 18.8203 30.2786 18.6183C30.3171 18.4257 30.3556 18.2236 30.4037 18.0408L32.9446 18.0407C32.9446 18.2043 32.9927 18.4642 32.9927 18.6278C33.0023 18.9166 33.0504 19.2149 33.0601 19.5037C33.0697 19.6962 33.1082 19.8983 33.1082 20.1004C33.1082 20.187 33.0986 20.3603 33.1756 20.3603H39.2486C39.3256 20.3603 39.2968 20.2255 39.316 20.033C39.3352 19.7924 39.3352 19.5325 39.3641 19.2919C39.3738 19.2342 39.3641 19.1668 39.3641 19.1091L39.4315 18.1755C39.4507 18.0023 39.4412 17.7809 39.47 17.6077C39.4989 17.4248 39.4892 17.2323 39.5085 17.0398C39.5182 16.9821 39.5085 16.9243 39.5182 16.8569L39.6144 15.3651C39.6144 15.2881 39.6144 15.24 39.624 15.163C39.6529 14.9513 39.6722 14.6144 39.6722 14.4027H40.1149C40.1822 14.4027 40.1726 14.4893 40.1919 14.5471L40.6827 16.6067C40.7404 16.8473 40.8078 17.1264 40.8655 17.367C41.0581 18.1177 41.2409 18.8588 41.4045 19.6191L41.5393 20.187C41.5585 20.2544 41.5489 20.3506 41.6163 20.3506H45.4372C45.4372 20.2639 45.3698 20.0715 45.341 19.9752L44.9464 18.5027C44.7923 17.8771 44.5999 17.2611 44.4459 16.6356C44.2919 16.0196 44.0994 15.394 43.955 14.778C43.9261 14.6529 43.878 14.5278 43.8492 14.4027C44.3208 14.4027 44.6769 14.2776 44.9367 14.0659C45.3699 13.7194 45.6393 13.19 45.6297 12.6029L45.8415 9.23439C45.8607 9.12854 45.8511 8.99379 45.8703 8.89754L45.9088 8.21416C45.9088 8.13716 45.9185 8.11796 45.928 8.06016C45.9377 7.99281 45.928 7.94467 45.9377 7.87731C45.9666 7.71371 45.9569 7.54047 45.9666 7.37683L46.0147 6.70313C46.0243 6.53949 46.0243 6.34699 46.0436 6.18339L46.1013 5.16321H47.2465C47.2465 5.48081 47.1984 5.7888 47.1984 6.1064L47.131 7.04958C47.1118 7.21318 47.1214 7.36718 47.1118 7.53078L47.0444 8.47397C47.0444 8.64721 47.0348 8.81081 47.0155 8.95516L46.7846 12.7472C46.7653 12.8819 46.7653 13.084 46.7557 13.2188C46.7557 13.3055 46.7365 13.3343 46.7365 13.4402L46.4285 18.4449C46.4189 18.5893 46.39 18.7625 46.39 18.9069L46.3323 19.8598C46.313 20.0041 46.3034 20.1774 46.3034 20.341H50.0762C50.1532 20.341 50.1244 20.2351 50.1244 20.1485C50.1244 19.9945 50.1629 19.8405 50.1629 19.6673L50.2399 18.4738C50.2591 18.3487 50.2688 18.1466 50.2688 18.0022C50.2688 17.9156 50.288 17.8771 50.288 17.7616C50.288 17.6461 50.3072 17.6173 50.3072 17.521C50.3072 17.3959 50.3168 17.1746 50.3361 17.0494C50.3649 16.8858 50.3457 16.7222 50.3649 16.5585C50.3746 16.4142 50.3938 16.2506 50.3938 16.0966L50.4323 15.6154C50.4323 15.5095 50.442 15.471 50.4515 15.394L50.49 14.6529C50.5093 14.3738 50.5478 13.9888 50.5574 13.7097L50.6056 12.7472C50.6152 12.6029 50.6441 12.4393 50.6441 12.2853C50.6441 12.1217 50.6729 11.9581 50.6826 11.8041C50.6922 11.4672 50.7211 11.1785 50.7307 10.8416L51.0676 5.61551C51.0772 5.52887 51.0772 5.46151 51.0772 5.36527C51.0772 5.27862 51.0964 5.24017 51.0964 5.12467H53.5988C53.5314 4.84557 53.4832 4.55683 53.4159 4.25848L53.156 2.95916C53.1271 2.80516 53.0983 2.67041 53.0694 2.51646C53.0405 2.38171 53.0116 2.22772 52.9827 2.09297C52.9539 1.93897 52.9057 1.79458 52.9057 1.64062H45.9761C45.9665 1.70802 45.9472 1.75617 45.928 1.81387C45.8702 1.97747 45.7932 2.16036 45.7547 2.32396H45.7162C45.697 2.25657 45.6296 2.20842 45.5815 2.16032C45.4756 2.05447 45.3505 1.98712 45.2254 1.91972C44.9078 1.72723 44.4073 1.64062 43.9838 1.64062H36.7269C36.7269 1.90052 36.6884 2.10261 36.6884 2.34321C36.6884 2.42025 36.6788 2.44911 36.6788 2.49721C36.6691 2.5646 36.6788 2.62231 36.6691 2.6801C36.6595 2.77631 36.6499 2.93035 36.6403 3.02659C36.6306 3.0843 36.6403 3.14209 36.6403 3.1998L36.5825 4.08528C36.5537 4.29702 36.544 4.87451 36.5248 5.14396L36.496 5.6637C36.496 5.84655 36.4574 6.00055 36.4574 6.17375L36.3516 7.75217C36.342 8.04091 36.2939 8.33926 36.3034 8.628C36.3034 8.91675 36.2649 9.2151 36.2553 9.50384L36.1206 11.5827C36.1206 11.9966 36.0532 12.42 36.0532 12.8339H36.034C36.034 12.4874 35.9089 11.8329 35.88 11.448L35.8511 11.217C35.8415 11.1208 35.8415 11.0726 35.8319 10.986L35.5046 8.22381C35.418 7.61742 35.3795 6.98223 35.2833 6.38549L35.2256 5.92355L34.7347 1.76577C34.7155 1.59252 34.6962 1.65027 34.3305 1.65027L30.7116 1.65023L30.0572 4.35469C29.5471 6.38545 29.0755 8.42582 28.5654 10.4662C28.5077 10.6876 28.4499 10.9186 28.4018 11.14L27.3334 15.5383L27.2468 15.8848L26.2555 19.9559C26.2458 19.9848 26.1688 20.2928 26.1688 20.2928C26.1785 20.3409 26.1688 20.3217 26.2265 20.3217H29.932V20.3602L29.9321 20.3603Z" fill="#FAFAFA"/>
</g>
<defs>
<clipPath id="clip0_1147_5017">
<rect width="52.3379" height="21.6839" fill="white" transform="translate(0 0.158203)"/>
</clipPath>
</defs>
</svg>
