<svg width="62" height="62" viewBox="0 0 62 62" fill="none" xmlns="http://www.w3.org/2000/svg">
<path d="M0.230748 30.9532C0.221511 37.0388 2.01708 42.9904 5.39036 48.0555C8.76364 53.1206 13.5631 57.0717 19.1819 59.4091C24.8007 61.7465 30.9864 62.3652 36.9569 61.187C42.9273 60.0088 48.4143 57.0867 52.724 52.7901C57.0337 48.4935 59.9725 43.0154 61.1688 37.0486C62.3651 31.0818 61.7652 24.8942 59.4449 19.2683C57.1246 13.6424 53.1881 8.83096 48.1332 5.44231C43.0784 2.05366 37.1323 0.240027 31.0467 0.230776C27.0055 0.222585 23.0023 1.011 19.2659 2.55089C15.5295 4.09079 12.1333 6.352 9.27141 9.20526C6.40947 12.0585 4.13791 15.4478 2.58667 19.1795C1.03543 22.9112 0.234835 26.912 0.230748 30.9532Z" fill="#FFE76A" fill-opacity="0.96"/>
<path d="M40.9999 35.92V38.92C41.0011 39.1985 40.944 39.4741 40.8324 39.7293C40.7209 39.9845 40.5572 40.2136 40.352 40.4018C40.1468 40.5901 39.9045 40.7335 39.6407 40.8227C39.3769 40.9119 39.0973 40.945 38.8199 40.92C35.7428 40.5856 32.7869 39.5341 30.1899 37.85C27.7738 36.3146 25.7253 34.2661 24.1899 31.85C22.4999 29.2412 21.4482 26.271 21.1199 23.18C21.0949 22.9034 21.1278 22.6247 21.2164 22.3616C21.3051 22.0985 21.4475 21.8567 21.6347 21.6516C21.8219 21.4465 22.0497 21.2827 22.3037 21.1705C22.5577 21.0583 22.8323 21.0002 23.1099 21H26.1099C26.5952 20.9952 27.0657 21.1671 27.4337 21.4835C27.8017 21.8 28.042 22.2394 28.1099 22.72C28.2366 23.68 28.4714 24.6227 28.8099 25.53C28.9445 25.8879 28.9736 26.2769 28.8938 26.6509C28.8141 27.0248 28.6288 27.3681 28.3599 27.64L27.0899 28.91C28.5135 31.4135 30.5864 33.4864 33.0899 34.91L34.3599 33.64C34.6318 33.3711 34.9751 33.1858 35.3491 33.1061C35.723 33.0263 36.112 33.0554 36.4699 33.19C37.3772 33.5285 38.3199 33.7634 39.2799 33.89C39.7657 33.9585 40.2093 34.2032 40.5265 34.5775C40.8436 34.9518 41.0121 35.4296 40.9999 35.92Z" fill="#0B101A"/>
</svg>
