<svg width="24" height="24" viewBox="0 0 24 24" fill="none" xmlns="http://www.w3.org/2000/svg">
<path d="M6.46991 4.05002L4.99991 5.54002C4.60323 5.93246 4.28831 6.39967 4.07339 6.91461C3.85847 7.42956 3.7478 7.98202 3.7478 8.54002C3.7478 9.09802 3.85847 9.65048 4.07339 10.1654C4.28831 10.6804 4.60323 11.1476 4.99991 11.54L12.4699 19C12.8623 19.3967 13.3296 19.7116 13.8445 19.9265C14.3595 20.1415 14.9119 20.2521 15.4699 20.2521C16.0279 20.2521 16.5804 20.1415 17.0953 19.9265C17.6103 19.7116 18.0775 19.3967 18.4699 19L19.9999 17.53C20.1043 17.4318 20.1876 17.3133 20.2445 17.1817C20.3013 17.0502 20.3307 16.9084 20.3307 16.765C20.3307 16.6217 20.3013 16.4799 20.2445 16.3483C20.1876 16.2167 20.1043 16.0982 19.9999 16L17.7599 13.75C17.5598 13.5534 17.2905 13.4432 17.0099 13.4432C16.7293 13.4432 16.46 13.5534 16.2599 13.75L15.5099 14.5C15.3098 14.6967 15.0405 14.8069 14.7599 14.8069C14.4793 14.8069 14.21 14.6967 14.0099 14.5L9.46991 10C9.27325 9.79992 9.16306 9.53058 9.16306 9.25002C9.16306 8.96946 9.27325 8.70012 9.46991 8.50002L10.2199 7.75002C10.4166 7.54992 10.5268 7.28058 10.5268 7.00002C10.5268 6.71946 10.4166 6.45012 10.2199 6.25002L7.99991 4.05002C7.90173 3.94559 7.7832 3.86236 7.65163 3.80547C7.52007 3.74859 7.37825 3.71924 7.23491 3.71924C7.09157 3.71924 6.94975 3.74859 6.81818 3.80547C6.68662 3.86236 6.56809 3.94559 6.46991 4.05002Z" stroke="white" stroke-linecap="round" stroke-linejoin="round"/>
</svg>
