<svg width="29" height="29" viewBox="0 0 29 29" fill="none" xmlns="http://www.w3.org/2000/svg">
<circle cx="14.5" cy="14.5" r="14.5" fill="#2F89CE"/>
<path d="M6.26303 14.7599L9.7116 15.9392L11.0559 19.906C11.1144 20.174 11.4651 20.2276 11.6989 20.0668L13.6278 18.6194C13.8031 18.4586 14.0954 18.4586 14.3292 18.6194L17.7777 20.9244C18.0115 21.0853 18.3622 20.978 18.4207 20.71L20.9925 9.45304C21.0509 9.18502 20.7587 8.917 20.4664 9.0242L6.26303 14.063C5.91232 14.1703 5.91232 14.6527 6.26303 14.7599ZM10.8806 15.3496L17.6608 11.5436C17.7777 11.49 17.8946 11.6508 17.7777 11.7044L12.225 16.4753C12.0496 16.6361 11.8742 16.8505 11.8742 17.1185L11.6989 18.405C11.6989 18.5658 11.4066 18.6194 11.3482 18.405L10.6468 16.0464C10.4714 15.7784 10.5884 15.4568 10.8806 15.3496Z" fill="white"/>
</svg>
