<svg width="179" height="378" viewBox="0 0 179 378" fill="none" xmlns="http://www.w3.org/2000/svg">
<path d="M20.7216 166.007H54.0433C70.3677 166.007 83.831 163.311 94.4334 157.921C105.204 152.362 113.198 144.866 118.415 135.433C123.8 125.832 126.493 115.051 126.493 103.091C126.493 88.9412 124.137 77.0655 119.425 67.4639C114.713 57.8623 107.644 50.619 98.2199 45.734C88.7956 40.8489 76.8469 38.4064 62.3738 38.4064C49.247 38.4064 37.6349 41.0174 27.5374 46.2393C17.6082 51.2928 9.7826 58.5361 4.06068 67.9692C-1.49295 77.4024 -4.26977 88.5201 -4.26977 101.322H-50.9707C-50.9707 82.6243 -46.2586 65.611 -36.8342 50.2821C-27.4099 34.9532 -14.199 22.7406 2.79849 13.6444C19.9643 4.54813 39.8227 0 62.3738 0C84.5883 0 104.026 3.95856 120.687 11.8757C137.348 19.6243 150.306 31.2473 159.562 46.7447C168.818 62.0735 173.446 81.1925 173.446 104.102C173.446 113.366 171.259 123.305 166.883 133.917C162.676 144.361 156.028 154.131 146.94 163.227C138.021 172.324 126.409 179.82 112.104 185.715C97.7992 191.443 80.6335 194.306 60.6067 194.306H20.7216V166.007ZM20.7216 204.413V176.366H60.6067C83.9993 176.366 103.353 179.146 118.667 184.705C133.982 190.263 146.015 197.675 154.766 206.94C163.685 216.205 169.912 226.396 173.446 237.513C177.149 248.463 179 259.412 179 270.361C179 287.543 176.055 302.787 170.165 316.095C164.443 329.402 156.281 340.688 145.678 349.953C135.244 359.218 122.959 366.209 108.822 370.925C94.6858 375.642 79.2871 378 62.6262 378C46.6385 378 31.5764 375.726 17.4399 371.178C3.47165 366.63 -8.89779 360.06 -19.6685 351.469C-30.4391 342.71 -38.8537 332.013 -44.9122 319.38C-50.9707 306.578 -54 292.007 -54 275.667H-7.29902C-7.29902 288.469 -4.52221 299.671 1.03142 309.273C6.75335 318.874 14.8314 326.37 25.2654 331.761C35.8678 336.983 48.3214 339.594 62.6262 339.594C76.931 339.594 89.2163 337.151 99.4821 332.266C109.916 327.213 117.91 319.632 123.464 309.525C129.186 299.418 132.047 286.701 132.047 271.372C132.047 256.043 128.849 243.493 122.454 233.723C116.059 223.785 106.971 216.457 95.1907 211.741C83.5786 206.856 69.8628 204.413 54.0433 204.413H20.7216Z" fill="white" fill-opacity="0.05"/>
</svg>
