<svg width="160" height="376" viewBox="0 0 160 376" fill="none" xmlns="http://www.w3.org/2000/svg">
<path d="M250 337.279V376H7.13558V342.119L128.695 206.851C143.646 190.208 155.199 176.112 163.354 164.564C171.679 152.846 177.455 142.401 180.683 133.23C184.081 123.89 185.78 114.379 185.78 104.699C185.78 92.4715 183.231 81.4327 178.135 71.5827C173.208 61.5628 165.902 53.5808 156.218 47.6369C146.534 41.6929 134.811 38.7209 121.05 38.7209C104.57 38.7209 90.8087 41.9476 79.7655 48.4011C68.8923 54.6847 60.7373 63.5158 55.3007 74.8943C49.8641 86.2728 47.1458 99.3496 47.1458 114.125H0C0 93.2358 4.58716 74.1301 13.7615 56.8076C22.9358 39.4851 36.5274 25.729 54.5362 15.5393C72.545 5.17976 94.7163 0 121.05 0C144.495 0 164.543 4.1608 181.193 12.4824C197.842 20.6341 210.584 32.1825 219.419 47.1274C228.423 61.9024 232.926 79.2249 232.926 99.0948C232.926 109.964 231.057 121.003 227.319 132.211C223.751 143.25 218.739 154.289 212.283 165.328C205.997 176.367 198.607 187.236 190.112 197.935C181.787 208.634 172.868 219.163 163.354 229.523L63.9653 337.279H250Z" fill="white" fill-opacity="0.05"/>
</svg>
