<svg width="62" height="62" viewBox="0 0 62 62" fill="none" xmlns="http://www.w3.org/2000/svg">
<path d="M0.230748 30.9532C0.221511 37.0388 2.01708 42.9904 5.39036 48.0555C8.76364 53.1206 13.5631 57.0717 19.1819 59.4091C24.8007 61.7465 30.9864 62.3652 36.9569 61.187C42.9273 60.0088 48.4143 57.0867 52.724 52.7901C57.0337 48.4935 59.9725 43.0154 61.1688 37.0486C62.3651 31.0818 61.7652 24.8942 59.4449 19.2683C57.1246 13.6424 53.1881 8.83096 48.1332 5.44231C43.0784 2.05366 37.1323 0.240027 31.0467 0.230776C27.0055 0.222585 23.0023 1.011 19.2659 2.55089C15.5295 4.09079 12.1333 6.352 9.27141 9.20526C6.40947 12.0585 4.13791 15.4478 2.58667 19.1795C1.03543 22.9112 0.234835 26.912 0.230748 30.9532Z" fill="#5ACF5F"/>
<path d="M31.2806 11.1365C27.7549 11.2072 24.3154 12.2392 21.3333 14.1213C18.3512 16.0034 15.9396 18.6641 14.3587 21.8162C12.7778 24.9684 12.0877 28.4924 12.3627 32.0081C12.6377 35.5237 13.8675 38.8975 15.9193 41.7655L13.5513 48.9008L20.8424 46.6262C23.9462 48.6673 27.5814 49.7509 31.2961 49.7421C36.4197 49.7421 41.3334 47.7068 44.9563 44.0839C48.5792 40.461 50.6145 35.5473 50.6145 30.4237C50.6145 25.3002 48.5792 20.3865 44.9563 16.7636C41.3334 13.1407 36.4197 11.1053 31.2961 11.1053L31.2806 11.1365ZM42.3107 38.6496C41.928 39.3447 41.3952 39.9458 40.7512 40.4093C40.1071 40.8728 39.368 41.1871 38.5873 41.3293C37.6058 41.5474 36.3127 41.7032 31.9505 39.896C26.3731 37.5902 22.7743 31.9349 22.4938 31.561C21.2019 29.9148 20.4169 27.9281 20.2348 25.8434C20.199 24.9695 20.3547 24.0983 20.6912 23.2909C21.0276 22.4836 21.5365 21.7595 22.1822 21.1696C22.7181 20.6975 23.4162 20.4518 24.1297 20.4841H24.7529C25.3137 20.4841 25.5941 20.4841 25.968 21.4189C26.4198 22.525 27.526 25.2514 27.6662 25.5318C27.7521 25.6895 27.797 25.8663 27.797 26.0459C27.797 26.2256 27.7521 26.4023 27.6662 26.56C27.5164 26.8796 27.3106 27.1698 27.0586 27.4169C26.7782 27.7441 26.5133 27.9934 26.2328 28.3361C25.9524 28.6788 25.6876 28.9592 26.0148 29.5201C26.8542 30.9428 27.9048 32.2299 29.1307 33.3371C30.4345 34.5214 31.9447 35.4561 33.5863 36.0946C33.806 36.1957 34.0508 36.2289 34.2895 36.1901C34.5282 36.1512 34.7499 36.042 34.9261 35.8765C35.4824 35.2524 36.0026 34.597 36.4841 33.9135C36.6179 33.6881 36.8316 33.5214 37.0827 33.4464C37.3339 33.3713 37.6039 33.3934 37.8395 33.5084C38.3536 33.6798 41.0644 35.0664 41.6252 35.3001C42.1861 35.5338 42.56 35.7051 42.6846 35.9388C42.8401 36.8594 42.7096 37.8055 42.3107 38.6496Z" fill="white"/>
</svg>
