<svg width="29" height="29" viewBox="0 0 29 29" fill="none" xmlns="http://www.w3.org/2000/svg">
<circle cx="14.5" cy="14.5" r="14.5" fill="#48C95F"/>
<path d="M20.2469 8.74528C18.8146 7.31793 16.9049 6.52496 14.889 6.52496C10.6982 6.52496 7.30305 9.9083 7.30305 14.0846C7.30305 15.4062 7.67439 16.7278 8.31098 17.838L7.25 21.75L11.2817 20.6927C12.3957 21.2742 13.6159 21.5914 14.889 21.5914C19.0799 21.5914 22.475 18.208 22.475 14.0317C22.422 12.0757 21.6793 10.1726 20.2469 8.74528ZM18.5494 16.7807C18.3902 17.2036 17.6476 17.6265 17.2762 17.6794C16.9579 17.7323 16.5335 17.7323 16.1091 17.6265C15.8439 17.5208 15.4726 17.4151 15.0482 17.2036C13.1384 16.4106 11.9183 14.5075 11.8122 14.3489C11.7061 14.2432 11.0165 13.3445 11.0165 12.3929C11.0165 11.4414 11.4939 11.0185 11.653 10.807C11.8122 10.5955 12.0244 10.5955 12.1835 10.5955C12.2896 10.5955 12.4488 10.5955 12.5549 10.5955C12.661 10.5955 12.8201 10.5427 12.9793 10.9127C13.1384 11.2828 13.5098 12.2343 13.5628 12.2872C13.6159 12.3929 13.6159 12.4987 13.5628 12.6044C13.5098 12.7101 13.4567 12.8158 13.3506 12.9216C13.2445 13.0273 13.1384 13.1859 13.0854 13.2388C12.9793 13.3445 12.8732 13.4502 12.9793 13.6088C13.0854 13.8203 13.4567 14.4018 14.0402 14.9304C14.7829 15.5648 15.3665 15.7763 15.5787 15.882C15.7909 15.9877 15.8969 15.9349 16.003 15.8291C16.1091 15.7234 16.4805 15.3005 16.5866 15.089C16.6927 14.8776 16.8518 14.9304 17.011 14.9833C17.1701 15.0362 18.125 15.5119 18.2841 15.6177C18.4963 15.7234 18.6024 15.7763 18.6555 15.8291C18.7085 15.9877 18.7085 16.3578 18.5494 16.7807Z" fill="white"/>
</svg>
