<svg width="126" height="113" viewBox="0 0 126 113" fill="none" xmlns="http://www.w3.org/2000/svg">
<g opacity="0.8">
<path d="M62.9504 59.4341H122.026C123.399 59.4341 124.511 60.5476 124.511 61.9213V69.1432C124.511 70.5168 123.399 71.6304 122.026 71.6304H62.9914" stroke="#E0E0E0" stroke-width="2" stroke-miterlimit="10" stroke-linecap="round" stroke-linejoin="round"/>
<path d="M46.4841 59.0349C47.0766 55.0295 50.526 51.9563 54.6925 51.9563C59.2756 51.9563 62.9909 55.6747 62.9909 60.2616V100.252" stroke="#E0E0E0" stroke-width="2" stroke-miterlimit="10" stroke-linecap="round" stroke-linejoin="round"/>
<path d="M46.3945 29.2081V100.33" stroke="#E0E0E0" stroke-width="2" stroke-miterlimit="10" stroke-linecap="round" stroke-linejoin="round"/>
<path d="M1 83.7075V3.48729C1 2.11361 2.11259 1.00008 3.48513 1.00008H43.9093C45.2818 1.00008 46.3944 2.11361 46.3944 3.48729V21.0783" stroke="#E0E0E0" stroke-width="2" stroke-miterlimit="10" stroke-linecap="round" stroke-linejoin="round"/>
<path d="M1 100.252V91.838" stroke="#E0E0E0" stroke-width="2" stroke-miterlimit="10" stroke-linecap="round" stroke-linejoin="round"/>
<path d="M96.4105 100.252H121.684C123.057 100.252 124.169 101.365 124.169 102.739V108.599C124.169 109.973 123.057 111.086 121.684 111.086H3.48513C2.11259 111.086 1 109.973 1 108.599V100.252H88.2873" stroke="#E0E0E0" stroke-width="2" stroke-miterlimit="10" stroke-linecap="round" stroke-linejoin="round"/>
<path d="M1 9.92822H46.3944" stroke="#E0E0E0" stroke-width="2" stroke-miterlimit="10" stroke-linecap="round" stroke-linejoin="round"/>
<path d="M46.3944 54.5366H1" stroke="#E0E0E0" stroke-width="2" stroke-miterlimit="10" stroke-linecap="round" stroke-linejoin="round"/>
<path d="M67.9937 71.6304L80.1589 59.4353" stroke="#E0E0E0" stroke-width="2" stroke-miterlimit="10" stroke-linecap="round" stroke-linejoin="round"/>
<path d="M92.3488 59.4353L80.1838 71.6304" stroke="#E0E0E0" stroke-width="2" stroke-miterlimit="10" stroke-linecap="round" stroke-linejoin="round"/>
<path d="M94.3005 71.6304L106.463 59.4353" stroke="#E0E0E0" stroke-width="2" stroke-miterlimit="10" stroke-linecap="round" stroke-linejoin="round"/>
<path d="M118.653 59.4353L106.491 71.6304" stroke="#E0E0E0" stroke-width="2" stroke-miterlimit="10" stroke-linecap="round" stroke-linejoin="round"/>
<path d="M46.3945 90.2495H62.9912" stroke="#E0E0E0" stroke-width="2" stroke-miterlimit="10" stroke-linecap="round" stroke-linejoin="round"/>
<path d="M54.0822 66.1448C54.2442 66.307 54.4639 66.3979 54.6927 66.3979C54.9215 66.3979 55.1412 66.307 55.3032 66.1448C55.4653 65.9825 55.5566 65.7623 55.5566 65.5325C55.5566 65.3028 55.4653 65.0825 55.3032 64.9203C55.1412 64.7581 54.9215 64.6671 54.6927 64.6671C54.4639 64.6671 54.2442 64.7581 54.0822 64.9203C53.9201 65.0825 53.8289 65.3028 53.8289 65.5325C53.8289 65.7623 53.9201 65.9825 54.0822 66.1448Z" fill="black" stroke="#E0E0E0" stroke-width="2"/>
<path d="M34.5228 88.6128H12.8719C11.4993 88.6128 10.3867 87.499 10.3867 86.1256V68.8942C10.3867 67.5205 11.4993 66.407 12.8719 66.407H34.5228C35.8954 66.407 37.008 67.5205 37.008 68.8942V86.1256C37.008 87.499 35.8954 88.6128 34.5228 88.6128Z" stroke="#E0E0E0" stroke-width="2" stroke-miterlimit="10" stroke-linecap="round" stroke-linejoin="round"/>
<path d="M36.2106 67.0719L11.1838 87.9478" stroke="#E0E0E0" stroke-width="2" stroke-miterlimit="10" stroke-linecap="round" stroke-linejoin="round"/>
</g>
</svg>
