<svg width="138" height="113" viewBox="0 0 138 113" fill="none" xmlns="http://www.w3.org/2000/svg">
<g opacity="0.8">
<path d="M114.093 13.0676C112.156 6.10856 105.777 0.999922 98.2005 0.999922C89.088 0.999922 81.7007 8.38701 81.7007 17.4995C81.7007 26.6122 89.088 33.9993 98.2005 33.9993C105.771 33.9993 112.146 28.8991 114.088 21.949" stroke="#E0E0E0" stroke-width="2" stroke-miterlimit="10" stroke-linecap="round" stroke-linejoin="round"/>
</g>
<path d="M23.8442 39.6946L27.0203 31.6293C29.6797 24.8774 36.195 20.4424 43.45 20.4424H81.1359" stroke="#E0E0E0" stroke-width="2" stroke-miterlimit="10" stroke-linecap="round" stroke-linejoin="round"/>
<path d="M109.631 30.4927C109.808 30.8652 109.973 31.2432 110.126 31.6293L113.302 39.6946" stroke="#E0E0E0" stroke-width="2" stroke-miterlimit="10" stroke-linecap="round" stroke-linejoin="round"/>
<path d="M107.499 32.1C110.103 34.0412 112.113 36.6718 113.302 39.6949L117.606 50.6262" stroke="#E0E0E0" stroke-width="2" stroke-miterlimit="10" stroke-linecap="round" stroke-linejoin="round"/>
<path d="M19.5398 50.6262L23.8444 39.6949C26.4684 33.0273 32.9049 28.6439 40.0701 28.6439H84.962" stroke="#E0E0E0" stroke-width="2" stroke-miterlimit="10" stroke-linecap="round" stroke-linejoin="round"/>
<path d="M27.7656 104.424V106.605C27.7656 109.128 25.7207 111.173 23.1973 111.173H13.5005C10.977 111.173 8.93213 109.128 8.93213 106.605V101.675" stroke="#E0E0E0" stroke-width="2" stroke-miterlimit="10" stroke-linecap="round" stroke-linejoin="round"/>
<path d="M128.214 101.675V106.605C128.214 109.128 126.169 111.173 123.646 111.173H113.949C111.426 111.173 109.381 109.128 109.381 106.605V104.424" stroke="#E0E0E0" stroke-width="2" stroke-miterlimit="10" stroke-linecap="round" stroke-linejoin="round"/>
<path d="M41.7485 75.9875H7.49536" stroke="#E0E0E0" stroke-width="2" stroke-miterlimit="10" stroke-linecap="round" stroke-linejoin="round"/>
<path d="M129.651 75.9875H95.3975" stroke="#E0E0E0" stroke-width="2" stroke-miterlimit="10" stroke-linecap="round" stroke-linejoin="round"/>
<path d="M83.7375 89.636H99.6301C100.426 89.636 101.189 89.32 101.751 88.7577L104.04 86.4689C105.693 84.815 107.937 83.8859 110.275 83.8859H129.651" stroke="#E0E0E0" stroke-width="2" stroke-miterlimit="10" stroke-linecap="round" stroke-linejoin="round"/>
<path d="M7.49536 83.8859H26.8708C29.2096 83.8859 31.4527 84.815 33.1065 86.4689L35.3953 88.7577C35.9578 89.3201 36.7206 89.636 37.516 89.636H53.4086" stroke="#E0E0E0" stroke-width="2" stroke-miterlimit="10" stroke-linecap="round" stroke-linejoin="round"/>
<path d="M48.6514 103.877H121.744C126.711 103.877 130.738 99.85 130.738 94.8822V62.6448C130.738 61.3414 130.382 60.0628 129.707 58.9475C129.033 57.8322 128.066 56.9228 126.911 56.3177L117.085 51.1669H93.3929" stroke="#E0E0E0" stroke-width="2" stroke-miterlimit="10" stroke-linecap="round" stroke-linejoin="round"/>
<path d="M84.5116 51.1669H20.061L10.235 56.3174C9.08059 56.9225 8.11369 57.832 7.43906 58.9473C6.76442 60.0625 6.40777 61.3411 6.40771 62.6445V94.8822C6.40771 99.85 10.4349 103.877 15.4027 103.877H39.7701" stroke="#E0E0E0" stroke-width="2" stroke-miterlimit="10" stroke-linecap="round" stroke-linejoin="round"/>
<path d="M110.604 90.7327H116.758" stroke="#E0E0E0" stroke-width="2" stroke-miterlimit="10" stroke-linecap="round" stroke-linejoin="round"/>
<path d="M20.3882 90.7327H26.5424" stroke="#E0E0E0" stroke-width="2" stroke-miterlimit="10" stroke-linecap="round" stroke-linejoin="round"/>
<path d="M12.8525 55.9041V65.2551C12.8525 65.6286 12.9896 65.9891 13.2377 66.2682C13.4859 66.5474 13.8279 66.7257 14.1988 66.7694L31.1073 68.7612C33.4303 69.0348 35.7752 68.4787 37.7279 67.1912L40.7487 65.199C41.8413 64.4787 41.5786 62.8072 40.3177 62.457L24.8191 58.1494C24.7775 58.138 24.7367 58.1249 24.6965 58.1097L14.9083 54.4746C13.912 54.1048 12.8525 54.8414 12.8525 55.9041Z" stroke="#E0E0E0" stroke-width="2" stroke-miterlimit="10" stroke-linecap="round" stroke-linejoin="round"/>
<path d="M124.294 55.9041V65.2551C124.294 65.6286 124.157 65.9891 123.908 66.2682C123.66 66.5474 123.318 66.7257 122.947 66.7694L106.039 68.7612C103.716 69.0348 101.371 68.4787 99.4183 67.1912L96.3975 65.199C95.3049 64.4787 95.5676 62.8072 96.8285 62.457L112.327 58.1494C112.369 58.138 112.409 58.1249 112.45 58.1097L122.238 54.4746C123.234 54.1048 124.294 54.8414 124.294 55.9041Z" stroke="#E0E0E0" stroke-width="2" stroke-miterlimit="10" stroke-linecap="round" stroke-linejoin="round"/>
<path d="M40.8613 62.4563H96.2843" stroke="#E0E0E0" stroke-width="2" stroke-miterlimit="10" stroke-linecap="round" stroke-linejoin="round"/>
<path d="M122.415 47.427H134.499C135.605 47.427 136.395 46.3602 136.074 45.3027C135.38 43.018 133.706 39.7093 129.832 39.7093H124.661C124.366 39.7092 124.074 39.7673 123.801 39.8802C123.529 39.9931 123.281 40.1585 123.072 40.3671C122.864 40.5757 122.698 40.8234 122.585 41.0959C122.473 41.3685 122.415 41.6606 122.415 41.9556V47.427Z" stroke="#E0E0E0" stroke-width="2" stroke-miterlimit="10" stroke-linecap="round" stroke-linejoin="round"/>
<path d="M121.871 47.427H117.306" stroke="#E0E0E0" stroke-width="2" stroke-miterlimit="10" stroke-linecap="round" stroke-linejoin="round"/>
<path d="M14.7316 47.427H2.64675C1.54111 47.427 0.7509 46.3602 1.07231 45.3027C1.76599 43.018 3.43969 39.7093 7.31406 39.7093H12.4852C12.7802 39.7092 13.0724 39.7673 13.3449 39.8802C13.6175 39.9931 13.8651 40.1585 14.0737 40.3671C14.2823 40.5757 14.4478 40.8234 14.5607 41.0959C14.6736 41.3685 14.7316 41.6606 14.7316 41.9556V47.427Z" stroke="#E0E0E0" stroke-width="2" stroke-miterlimit="10" stroke-linecap="round" stroke-linejoin="round"/>
<path d="M15.5474 47.427H20.1124" stroke="#E0E0E0" stroke-width="2" stroke-miterlimit="10" stroke-linecap="round" stroke-linejoin="round"/>
<path d="M42.5645 75.987H94.5816V78.2478C94.5816 84.5374 89.4828 89.636 83.1934 89.636H53.9526C47.663 89.636 42.5645 84.5374 42.5645 78.2478V75.987Z" stroke="#E0E0E0" stroke-width="2" stroke-miterlimit="10" stroke-linecap="round" stroke-linejoin="round"/>
</svg>
