<svg width="113" height="113" viewBox="0 0 113 113" fill="none" xmlns="http://www.w3.org/2000/svg">
<g opacity="0.8">
<path d="M19.9823 111.086H8.86802C6.99414 111.086 5.4751 109.481 5.4751 107.502V94.0805H23.3753V107.502C23.3753 109.481 21.8562 111.086 19.9823 111.086Z" stroke="#E0E0E0" stroke-width="2" stroke-miterlimit="10" stroke-linecap="round" stroke-linejoin="round"/>
<path d="M103.218 111.086H92.1039C90.23 111.086 88.7109 109.481 88.7109 107.502V94.0805H106.611V107.502C106.611 109.481 105.092 111.086 103.218 111.086Z" stroke="#E0E0E0" stroke-width="2" stroke-miterlimit="10" stroke-linecap="round" stroke-linejoin="round"/>
<path d="M6.71882 52.91H10.4961C13.6546 52.91 16.2151 55.3144 16.2151 58.2802V63.6501H6.71882C3.56034 63.6501 1 61.246 1 58.2802C1 55.3144 3.56034 52.91 6.71882 52.91Z" stroke="#E0E0E0" stroke-width="2" stroke-miterlimit="10" stroke-linecap="round" stroke-linejoin="round"/>
<path d="M105.367 52.91H101.59C98.4314 52.91 95.8708 55.3144 95.8708 58.2802V63.6501H105.367C108.526 63.6501 111.086 61.246 111.086 58.2802C111.086 55.3144 108.526 52.91 105.367 52.91Z" stroke="#E0E0E0" stroke-width="2" stroke-miterlimit="10" stroke-linecap="round" stroke-linejoin="round"/>
<path d="M87.8119 86.0251H106.611V72.6H87.8119C84.8483 72.6 82.4458 75.1411 82.4458 78.2762V80.349C82.4458 83.484 84.8483 86.0251 87.8119 86.0251Z" stroke="#E0E0E0" stroke-width="2" stroke-miterlimit="10" stroke-linecap="round" stroke-linejoin="round"/>
<path d="M24.2742 86.0251H5.4751V72.6H24.2742C27.2378 72.6 29.6403 75.1411 29.6403 78.2762V80.349C29.6403 83.484 27.2378 86.0251 24.2742 86.0251Z" stroke="#E0E0E0" stroke-width="2" stroke-miterlimit="10" stroke-linecap="round" stroke-linejoin="round"/>
<path d="M69.3149 94.0808C71.1296 94.0808 72.6007 92.6153 72.6007 90.8073V85.719C72.6007 83.9112 71.1296 82.4457 69.3149 82.4457H42.7711C40.9564 82.4457 39.4854 83.9112 39.4854 85.719V90.8073C39.4854 92.6153 40.9564 94.0808 42.7711 94.0808" stroke="#E0E0E0" stroke-width="2" stroke-miterlimit="10" stroke-linecap="round" stroke-linejoin="round"/>
<path d="M79.1489 63.6505H98.5439C102.981 63.6505 106.611 67.241 106.611 71.6296V94.0808H52.9106" stroke="#E0E0E0" stroke-width="2" stroke-miterlimit="10" stroke-linecap="round" stroke-linejoin="round"/>
<path d="M45.5798 94.0808H5.4751V71.6296C5.4751 67.2412 9.08965 63.6505 13.5078 63.6505H71.7057" stroke="#E0E0E0" stroke-width="2" stroke-miterlimit="10" stroke-linecap="round" stroke-linejoin="round"/>
<path d="M41.2754 39.603C56.5212 37.499 72.0512 38.6722 86.9803 43.1227C88.8556 43.6818 90.349 45.2345 90.9551 47.2558L95.8709 63.6501" stroke="#E0E0E0" stroke-width="2" stroke-miterlimit="10" stroke-linecap="round" stroke-linejoin="round"/>
<path d="M16.2151 63.6501L21.1435 47.5557C21.7512 45.5714 23.2485 44.047 25.129 43.4982C28.0909 42.6333 31.0891 41.8915 34.1152 41.2749" stroke="#E0E0E0" stroke-width="2" stroke-miterlimit="10" stroke-linecap="round" stroke-linejoin="round"/>
<path d="M86.5695 3.27043C86.4804 2.79438 86.2494 2.3564 85.907 2.01394C85.5645 1.67148 85.1265 1.44055 84.6505 1.35145C78.1477 0.143447 71.1808 2.04984 66.1506 7.08012C61.1203 12.1104 59.2139 19.0773 60.4219 25.5801C60.511 26.0561 60.742 26.4941 61.0844 26.8365C61.4269 27.1789 61.8648 27.4098 62.3409 27.4989C68.8436 28.7071 75.8105 26.8007 80.8408 21.7704C85.8711 16.7402 87.7774 9.77323 86.5695 3.27043Z" stroke="#E0E0E0" stroke-width="2" stroke-miterlimit="10" stroke-linecap="round" stroke-linejoin="round"/>
<path d="M25.5164 3.27043C25.6055 2.79438 25.8364 2.3564 26.1789 2.01394C26.5213 1.67148 26.9593 1.44055 27.4354 1.35145C33.9381 0.143447 40.905 2.04984 45.9353 7.08012C50.9655 12.1104 52.8719 19.0773 51.6639 25.5801C51.5748 26.0561 51.3439 26.4941 51.0014 26.8365C50.659 27.1789 50.221 27.4098 49.745 27.4989C43.2422 28.7071 36.2753 26.8007 31.245 21.7704C26.2148 16.7402 24.3084 9.77323 25.5164 3.27043Z" stroke="#E0E0E0" stroke-width="2" stroke-miterlimit="10" stroke-linecap="round" stroke-linejoin="round"/>
<path d="M55.5955 38.5906C55.5956 34.3572 54.0481 30.288 51.2774 27.2354L41.2754 16.2154" stroke="#E0E0E0" stroke-width="2" stroke-miterlimit="10" stroke-linecap="round" stroke-linejoin="round"/>
<path d="M55.5955 38.5906C55.5954 34.3572 57.2396 30.288 60.1835 27.2354L70.8106 16.2154" stroke="#E0E0E0" stroke-width="2" stroke-miterlimit="10" stroke-linecap="round" stroke-linejoin="round"/>
</g>
</svg>
