<svg width="114" height="113" viewBox="0 0 114 113" fill="none" xmlns="http://www.w3.org/2000/svg">
<g opacity="0.8">
<path d="M1 63.5836V94.2359C1 103.555 8.5567 111.112 17.8759 111.112C27.1974 111.112 34.7519 103.555 34.7519 94.2359V47.1601H1V56.8306" stroke="#E0E0E0" stroke-width="2" stroke-miterlimit="10" stroke-linecap="round" stroke-linejoin="round"/>
<path d="M34.752 47.1597V11.213C34.752 11.213 36.6181 5.02721 44.5192 1.00012C52.418 5.02721 54.2841 11.213 54.2841 11.213C54.2841 11.213 56.148 5.02721 64.0491 1.00012C71.9502 5.02721 73.814 11.213 73.814 11.213C73.814 11.213 75.6779 5.02721 83.579 1.00012C91.4801 5.02721 93.3462 11.213 93.3462 11.213C93.3462 11.213 95.21 5.02721 103.111 1.00012C107.062 3.01254 109.504 5.56745 110.956 7.61589C112.41 9.66657 112.876 11.213 112.876 11.213V19.373" stroke="#E0E0E0" stroke-width="2" stroke-miterlimit="10" stroke-linecap="round" stroke-linejoin="round"/>
<path d="M112.876 26.1266V94.2359C112.876 103.555 105.319 111.112 96.0001 111.112H17.876" stroke="#E0E0E0" stroke-width="2" stroke-miterlimit="10" stroke-linecap="round" stroke-linejoin="round"/>
<path d="M45.3701 56.0562H50.9437" stroke="#E0E0E0" stroke-width="2" stroke-miterlimit="10" stroke-linecap="round" stroke-linejoin="round"/>
<path d="M58.2505 56.0562H102.573" stroke="#E0E0E0" stroke-width="2" stroke-miterlimit="10" stroke-linecap="round" stroke-linejoin="round"/>
<path d="M45.3701 65.7729H50.9437" stroke="#E0E0E0" stroke-width="2" stroke-miterlimit="10" stroke-linecap="round" stroke-linejoin="round"/>
<path d="M58.2505 65.7729H102.573" stroke="#E0E0E0" stroke-width="2" stroke-miterlimit="10" stroke-linecap="round" stroke-linejoin="round"/>
<path d="M45.3701 85.9741H50.9437" stroke="#E0E0E0" stroke-width="2" stroke-miterlimit="10" stroke-linecap="round" stroke-linejoin="round"/>
<path d="M58.2505 85.9741H102.573" stroke="#E0E0E0" stroke-width="2" stroke-miterlimit="10" stroke-linecap="round" stroke-linejoin="round"/>
<path d="M45.3701 95.5024H50.9437" stroke="#E0E0E0" stroke-width="2" stroke-miterlimit="10" stroke-linecap="round" stroke-linejoin="round"/>
<path d="M58.2505 95.5024H102.573" stroke="#E0E0E0" stroke-width="2" stroke-miterlimit="10" stroke-linecap="round" stroke-linejoin="round"/>
</g>
</svg>
