<svg width="83" height="76" viewBox="0 0 83 76" fill="none" xmlns="http://www.w3.org/2000/svg">
<g opacity="0.8">
<g opacity="0.8">
<path d="M69.6488 21.7713C76.6862 29.9974 81.0242 41.2446 81.0242 53.6553H51.7287M30.2898 53.6553H1C1 28.441 18.9144 8.00013 41.0123 8.00013C49.7686 8.00013 57.8664 11.2111 64.451 16.6513" stroke="#E5EEF7" stroke-width="2" stroke-miterlimit="10" stroke-linecap="round" stroke-linejoin="round"/>
<path d="M41.0121 64.7644C46.3759 64.7644 50.7486 59.7749 50.7486 53.6545C50.7486 47.5342 46.3759 42.545 41.0121 42.545C35.648 42.545 31.2754 47.5342 31.2754 53.6545C31.2754 59.7749 35.648 64.7644 41.0121 64.7644Z" stroke="#E5EEF7" stroke-width="2" stroke-miterlimit="10" stroke-linecap="round" stroke-linejoin="round"/>
<path d="M51.4071 21.0655L52.5419 17.4949M29.4754 17.4949L30.6158 21.0655M60.542 27.0946L62.6795 24.1844M19.3378 24.1844L21.4811 27.0946M67.327 36.3142L70.2155 34.4183M11.8074 34.4183L14.6903 36.3142M69.39 47.9473L75.7684 46.659M6.24878 46.659L12.6329 47.9473M41.0115 13.3889V20.7778" stroke="#E5EEF7" stroke-width="2" stroke-miterlimit="10" stroke-linecap="round" stroke-linejoin="round"/>
<path d="M48.6566 46.3647L53.1781 29.6054L42.6736 42.5067" stroke="#E5EEF7" stroke-width="2" stroke-miterlimit="10" stroke-linecap="round" stroke-linejoin="round"/>
<path d="M19.8888 60.0376H23.6308C25.4705 60.0376 26.9776 61.7575 26.9776 63.8631C26.9776 65.962 25.4705 67.6819 23.6308 67.6819H9.27526C7.43579 67.6819 5.92847 65.962 5.92847 63.8631C5.92847 61.7575 7.43579 60.0376 9.27526 60.0376H13.0177" stroke="#E5EEF7" stroke-width="2" stroke-miterlimit="10" stroke-linecap="round" stroke-linejoin="round"/>
<path d="M69.0006 67.6819H72.743C74.5884 67.6819 76.0955 65.962 76.0955 63.8631C76.0955 61.7575 74.5884 60.0376 72.743 60.0376H58.3932C56.5476 60.0376 55.0405 61.7575 55.0405 63.8631C55.0405 65.962 56.5476 67.6819 58.3932 67.6819H62.1352" stroke="#E5EEF7" stroke-width="2" stroke-miterlimit="10" stroke-linecap="round" stroke-linejoin="round"/>
</g>
</g>
</svg>
