<svg width="112" height="112" viewBox="0 0 112 112" fill="none" xmlns="http://www.w3.org/2000/svg">
<g opacity="0.8">
<path d="M99.8735 1H11.5936C5.74299 1 1 5.74299 1 11.5936V99.8735C1 105.724 5.74299 110.467 11.5936 110.467H99.8735C105.724 110.467 110.467 105.724 110.467 99.8735V11.5936C110.467 5.74299 105.724 1 99.8735 1Z" stroke="#E0E0E0" stroke-width="2" stroke-miterlimit="10" stroke-linecap="round" stroke-linejoin="round"/>
<path d="M8.0625 23.9529V99.8737C8.0625 101.824 9.6435 103.405 11.5936 103.405H99.8735C101.824 103.405 103.405 101.824 103.405 99.8737V11.5936C103.405 9.6435 101.824 8.0625 99.8735 8.0625H11.5936C9.6435 8.0625 8.0625 9.6435 8.0625 11.5936V16.8904" stroke="#E0E0E0" stroke-width="2" stroke-miterlimit="10" stroke-linecap="round" stroke-linejoin="round"/>
<path d="M64.5621 56.0584C62.7655 57.1601 60.6591 57.803 58.4317 57.803C55.8355 57.803 50.6558 57.8299 47.1931 57.8497V34.9297H58.4317C64.7898 34.9297 70.1617 40.1678 70.1617 46.3665C70.1617 47.8675 69.8467 49.3124 69.2789 50.6401M58.4317 27.8672H43.662C41.7119 27.8672 40.1309 29.4482 40.1309 31.3983V82.6732C40.1309 83.1415 40.3169 83.5906 40.648 83.9217C40.9791 84.2528 41.4282 84.4388 41.8964 84.4388H45.4276C45.8958 84.4388 46.3449 84.2528 46.676 83.9217C47.0071 83.5906 47.1931 83.1415 47.1931 82.6732V64.9125C50.645 64.8926 55.8342 64.8656 58.4317 64.8656C68.7934 64.8656 77.2239 56.567 77.2239 46.3665C77.2239 36.166 68.7934 27.8672 58.4317 27.8672Z" stroke="#E0E0E0" stroke-width="2" stroke-miterlimit="10" stroke-linecap="round" stroke-linejoin="round"/>
</g>
</svg>
