<svg width="153" height="113" viewBox="0 0 153 113" fill="none" xmlns="http://www.w3.org/2000/svg">
<g opacity="0.8">
<path d="M85.8852 111.086H127.777C130.025 111.086 131.848 109.15 131.848 106.76V49.6316C131.848 48.3481 131.311 47.1311 130.384 46.3094L105.374 24.1494C104.643 23.5011 103.72 23.1459 102.767 23.1458H39.8688C39.0539 23.1459 38.2578 23.4058 37.5838 23.8917L22.2992 34.908C21.749 35.3051 21.2986 35.839 20.9874 36.4631C20.6762 37.0871 20.5135 37.7825 20.5137 38.4885V83.0027C20.5137 84.6421 21.3859 86.141 22.7664 86.8734L67.5562 110.631C68.1207 110.93 68.7432 111.086 69.3745 111.086H76.1806" stroke="#E0E0E0" stroke-width="2" stroke-miterlimit="10" stroke-linecap="round" stroke-linejoin="round"/>
<path d="M141.68 98.9922H131.848V60.3546H141.68V98.9922Z" stroke="#E0E0E0" stroke-width="2" stroke-miterlimit="10" stroke-linecap="round" stroke-linejoin="round"/>
<path d="M151.361 76.6421V104.066C151.361 106.902 149.194 109.201 146.521 109.201C143.847 109.201 141.68 106.902 141.68 104.066V55.2815C141.68 52.4453 143.847 50.1463 146.521 50.1463C149.194 50.1463 151.361 52.4453 151.361 55.2815V66.3716" stroke="#E0E0E0" stroke-width="2" stroke-miterlimit="10" stroke-linecap="round" stroke-linejoin="round"/>
<path d="M5.84061 91.1875C3.16708 91.1875 1 88.8885 1 86.0523V37.2679C1 34.4316 3.16708 32.1327 5.84061 32.1327C8.51413 32.1327 10.6812 34.4316 10.6812 37.2679V86.0523C10.6812 88.8885 8.51413 91.1875 5.84061 91.1875Z" stroke="#E0E0E0" stroke-width="2" stroke-miterlimit="10" stroke-linecap="round" stroke-linejoin="round"/>
<path d="M66.4298 1.0001H95.5297C98.203 1.0001 100.37 3.29907 100.37 6.1353C100.37 8.97154 98.203 11.2705 95.5297 11.2705H49.544C46.8704 11.2705 44.7034 8.97154 44.7034 6.1353C44.7034 3.29907 46.8704 1.0001 49.544 1.0001H56.7486" stroke="#E0E0E0" stroke-width="2" stroke-miterlimit="10" stroke-linecap="round" stroke-linejoin="round"/>
<path d="M77.0746 23.1457H67.9985V11.2706H77.0746V23.1457ZM10.6812 56.0951H20.5136V65.7236H10.6812V56.0951Z" stroke="#E0E0E0" stroke-width="2" stroke-miterlimit="10" stroke-linecap="round" stroke-linejoin="round"/>
<path d="M85.8149 43.0164L64.0028 59.5706C63.8809 59.6631 63.7793 59.7824 63.7048 59.9204C63.6303 60.0584 63.5848 60.2118 63.5714 60.3701C63.5579 60.5285 63.5768 60.688 63.6268 60.8379C63.6767 60.9878 63.7566 61.1245 63.8609 61.2386L69.3438 67.2417C69.4733 67.3836 69.5646 67.5597 69.6083 67.7517C69.6519 67.9437 69.6462 68.1446 69.5919 68.3335L64.7123 85.298C64.4261 86.2942 65.478 87.1194 66.2918 86.5369L89.3385 70.0336C89.4632 69.9443 89.5682 69.8275 89.6463 69.691C89.7243 69.5546 89.7736 69.4019 89.7908 69.2433C89.8079 69.0848 89.7925 68.9242 89.7455 68.7726C89.6986 68.6209 89.6213 68.4819 89.5189 68.365L82.7311 60.6147C82.603 60.4684 82.5146 60.288 82.4754 60.0927C82.4361 59.8974 82.4474 59.6945 82.5081 59.5055L87.4071 44.2722C87.7345 43.2548 86.639 42.3911 85.8149 43.0164Z" stroke="#E0E0E0" stroke-width="2" stroke-miterlimit="10" stroke-linecap="round" stroke-linejoin="round"/>
</g>
</svg>
