<svg width="171" height="113" viewBox="0 0 171 113" fill="none" xmlns="http://www.w3.org/2000/svg">
<g opacity="0.8">
<path d="M145.485 26.4017C160.297 41.5751 169.427 62.3211 169.427 85.2134H107.769M62.6463 85.2134H1C1 38.7043 38.7044 0.999902 85.2139 0.999902C103.643 0.999902 120.687 6.92273 134.545 16.9575" stroke="#E0E0E0" stroke-width="2" stroke-miterlimit="10" stroke-linecap="round" stroke-linejoin="round"/>
<path d="M85.2138 105.706C96.503 105.706 105.706 96.5022 105.706 85.2127C105.706 73.9236 96.503 64.7206 85.2138 64.7206C73.9239 64.7206 64.7209 73.9236 64.7209 85.2127C64.7209 96.5022 73.9239 105.706 85.2138 105.706Z" stroke="#E0E0E0" stroke-width="2" stroke-miterlimit="10" stroke-linecap="round" stroke-linejoin="round"/>
<path d="M107.093 25.0991L109.482 18.513M60.9336 18.513L63.3338 25.0991M126.32 36.2202L130.818 30.8522M39.597 30.8522L44.108 36.2202M140.6 53.2262L146.679 49.7291M23.7479 49.7291L29.8154 53.2262M144.942 74.6841L158.367 72.3077M12.0486 72.3077L25.4851 74.6841M85.2138 10.9392V24.5685" stroke="#E0E0E0" stroke-width="2" stroke-miterlimit="10" stroke-linecap="round" stroke-linejoin="round"/>
<path d="M101.303 71.7651L110.82 40.8516L88.7109 64.6488" stroke="#E0E0E0" stroke-width="2" stroke-miterlimit="10" stroke-linecap="round" stroke-linejoin="round"/>
<path d="M40.7553 96.9851H48.6311C52.5031 96.9851 55.6751 100.158 55.6751 104.041C55.6751 107.913 52.5031 111.085 48.6311 111.085H18.417C14.5455 111.085 11.373 107.913 11.373 104.041C11.373 100.158 14.5455 96.9851 18.417 96.9851H26.2937" stroke="#E0E0E0" stroke-width="2" stroke-miterlimit="10" stroke-linecap="round" stroke-linejoin="round"/>
<path d="M144.122 111.085H151.998C155.882 111.085 159.054 107.913 159.054 104.041C159.054 100.158 155.882 96.9851 151.998 96.9851H121.796C117.912 96.9851 114.74 100.158 114.74 104.041C114.74 107.913 117.912 111.085 121.796 111.085H129.672" stroke="#E0E0E0" stroke-width="2" stroke-miterlimit="10" stroke-linecap="round" stroke-linejoin="round"/>
</g>
</svg>
